<?xml version="1.0" encoding="UTF-8" standalone="no"?>
<!-- Created with Inkscape (http://www.inkscape.org/) -->

<svg
   xmlns:dc="http://purl.org/dc/elements/1.1/"
   xmlns:cc="http://creativecommons.org/ns#"
   xmlns:rdf="http://www.w3.org/1999/02/22-rdf-syntax-ns#"
   xmlns:svg="http://www.w3.org/2000/svg"
   xmlns="http://www.w3.org/2000/svg"
   xmlns:sodipodi="http://sodipodi.sourceforge.net/DTD/sodipodi-0.dtd"
   xmlns:inkscape="http://www.inkscape.org/namespaces/inkscape"
   version="1.1"
   id="svg3732"
   xml:space="preserve"
   width="241.79652"
   height="306.61343"
   viewBox="0 0 241.79652 306.61343"
   sodipodi:docname="KI-Logo_vert_cmyk.svg"
   inkscape:version="0.92.4 (5da689c313, 2019-01-14)"><metadata
     id="metadata3738"><rdf:RDF><cc:Work
         rdf:about=""><dc:format>image/svg+xml</dc:format><dc:type
           rdf:resource="http://purl.org/dc/dcmitype/StillImage" /><dc:title></dc:title></cc:Work></rdf:RDF></metadata><defs
     id="defs3736" /><sodipodi:namedview
     pagecolor="#ffffff"
     bordercolor="#666666"
     borderopacity="1"
     objecttolerance="10"
     gridtolerance="10"
     guidetolerance="10"
     inkscape:pageopacity="0"
     inkscape:pageshadow="2"
     inkscape:window-width="1920"
     inkscape:window-height="1023"
     id="namedview3734"
     showgrid="false"
     fit-margin-top="0"
     fit-margin-left="0"
     fit-margin-right="0"
     fit-margin-bottom="0"
     inkscape:zoom="2.1328944"
     inkscape:cx="121.10853"
     inkscape:cy="154.41279"
     inkscape:window-x="0"
     inkscape:window-y="27"
     inkscape:window-maximized="1"
     inkscape:current-layer="g3740" /><g
     id="g3740"
     inkscape:groupmode="layer"
     inkscape:label="ink_ext_XXXXXX"
     transform="matrix(1.3333333,0,0,-1.3333333,-42.444799,348.6473)"><g
       id="g3742"
       transform="scale(0.1)"><path
         d="m 450.367,713.008 -67.91,163.203 h -0.918 V 713.008 h -63.203 v 319.882 h 63.203 V 884.102 h 0.918 l 69.316,148.788 h 62.735 L 440.602,884.57 521.5,713.008 h -71.133"
         style="fill:#820655;fill-opacity:1;fill-rule:nonzero;stroke:none"
         id="path3744"
         inkscape:connector-curvature="0" /><path
         d="m 627.047,708.379 c -60,0 -90.234,28.809 -90.234,78.574 0,64.18 47.46,84.141 114.375,93.008 v 8.359 c 0,23.672 -13.907,34.805 -35.782,34.805 -20.976,0 -39.531,-5.977 -53.008,-12.988 l -12.578,39.511 c 14.414,7.93 39.532,18.614 77.227,18.614 46.914,0 82.266,-23.223 82.266,-92.051 V 726.953 C 691.188,715.352 666.07,708.379 627.047,708.379 Z m 24.141,135.254 c -38.594,-5.078 -57.657,-18.086 -57.657,-54.375 0,-25.586 12.578,-39.961 36.289,-39.961 8.36,0 16.719,2.344 21.368,4.16 v 90.176"
         style="fill:#820655;fill-opacity:1;fill-rule:nonzero;stroke:none"
         id="path3746"
         inkscape:connector-curvature="0" /><path
         d="m 863.141,918.516 c -13.868,6.953 -29.766,6.484 -41.289,0.937 V 713.008 h -60.039 v 236.64 c 22.773,13.516 54.843,20.957 112.5,18.165 l -11.172,-49.297"
         style="fill:#820655;fill-opacity:1;fill-rule:nonzero;stroke:none"
         id="path3748"
         inkscape:connector-curvature="0" /><path
         d="m 981.266,708.379 c -61.446,0 -91.641,55.781 -91.641,130.176 0,74.375 30.195,129.707 91.641,129.707 61.794,0 91.564,-55.332 91.564,-129.707 0,-74.395 -29.77,-130.176 -91.564,-130.176 z m 0,215.234 c -26.524,0 -31.133,-38.105 -31.133,-83.652 0,-45.586 5.117,-82.754 31.133,-82.754 26.954,0 31.644,37.168 31.644,82.266 0,45.566 -4.69,84.14 -31.644,84.14"
         style="fill:#820655;fill-opacity:1;fill-rule:nonzero;stroke:none"
         id="path3750"
         inkscape:connector-curvature="0" /><path
         d="m 1120.29,713.008 v 347.112 l 60.86,17.85 V 713.008 h -60.86"
         style="fill:#820655;fill-opacity:1;fill-rule:nonzero;stroke:none"
         id="path3752"
         inkscape:connector-curvature="0" /><path
         d="m 1265.72,1004.5 c -17.58,0 -32.07,14.88 -32.07,32.57 0,18.13 14.49,32.52 32.07,32.52 18.16,0 33.05,-14.39 33.05,-32.52 0,-17.69 -14.89,-32.57 -33.05,-32.57 z m -29.73,-291.492 v 250.586 h 60.43 V 713.008 h -60.43"
         style="fill:#820655;fill-opacity:1;fill-rule:nonzero;stroke:none"
         id="path3754"
         inkscape:connector-curvature="0" /><path
         d="m 1465.72,713.008 v 177.148 c 0,21.836 -8.87,33.926 -30.27,33.926 -12.54,0 -18.64,-1.387 -25.04,-4.629 V 713.008 h -60.04 v 236.64 c 19.92,11.172 48.32,18.614 86.52,18.614 61.33,0 89.65,-25.098 89.65,-78.106 V 713.008 h -60.82"
         style="fill:#820655;fill-opacity:1;fill-rule:nonzero;stroke:none"
         id="path3756"
         inkscape:connector-curvature="0" /><path
         d="m 1628.84,708.379 c -28.39,0 -47.93,6.035 -62.26,18.574 l 14.8,44.219 c 7.03,-6.524 21.84,-13.965 38.17,-13.965 15.74,0 26.05,9.297 26.05,23.223 0,18.164 -7.97,25.547 -30.23,42.324 -23.67,17.656 -44.61,39.512 -44.61,72.519 0,42.774 28.32,72.989 70.15,72.989 27,0 46.96,-6.973 61.41,-18.614 l -14.45,-38.593 c -6.06,5.625 -17.62,12.07 -33.05,12.07 -14.8,0 -24.14,-11.133 -24.14,-23.672 0,-16.289 11.68,-26.055 33.91,-42.305 26.05,-19.492 44.64,-37.656 44.64,-74.355 0,-42.832 -33.86,-74.414 -80.39,-74.414"
         style="fill:#820655;fill-opacity:1;fill-rule:nonzero;stroke:none"
         id="path3758"
         inkscape:connector-curvature="0" /><path
         d="m 1876.15,713.008 -63.67,131.094 h -0.94 V 713.008 h -59.96 v 347.112 l 59.96,17.85 V 848.809 h 0.94 l 64.14,114.785 h 59.57 l -69.77,-114.785 74.81,-135.801 h -65.08"
         style="fill:#820655;fill-opacity:1;fill-rule:nonzero;stroke:none"
         id="path3760"
         inkscape:connector-curvature="0" /><path
         d="m 2049.59,708.379 c -59.96,0 -90.24,28.809 -90.24,78.574 0,64.18 47.46,84.141 114.45,93.008 v 8.359 c 0,23.672 -14.06,34.805 -35.89,34.805 -20.9,0 -39.46,-5.977 -52.97,-12.988 l -12.54,39.511 c 14.41,7.93 39.49,18.614 77.19,18.614 46.95,0 82.22,-23.223 82.22,-92.051 V 726.953 c -18.12,-11.601 -43.24,-18.574 -82.22,-18.574 z m 24.21,135.254 c -38.71,-5.078 -57.65,-18.086 -57.65,-54.375 0,-25.586 12.5,-39.961 36.17,-39.961 8.4,0 16.84,2.344 21.48,4.16 v 90.176"
         style="fill:#820655;fill-opacity:1;fill-rule:nonzero;stroke:none"
         id="path3762"
         inkscape:connector-curvature="0" /><path
         d="m 415.016,319.883 v 319.922 h 63.632 V 319.883 h -63.632"
         style="fill:#820655;fill-opacity:1;fill-rule:nonzero;stroke:none"
         id="path3764"
         inkscape:connector-curvature="0" /><path
         d="M 649.762,319.883 V 497.07 c 0,21.895 -8.828,33.965 -30.196,33.965 -12.539,0 -18.613,-1.426 -25.136,-4.726 V 319.883 h -59.942 v 236.719 c 19.961,11.132 48.321,18.574 86.446,18.574 61.367,0 89.746,-25.117 89.746,-78.106 V 319.883 h -60.918"
         style="fill:#820655;fill-opacity:1;fill-rule:nonzero;stroke:none"
         id="path3766"
         inkscape:connector-curvature="0" /><path
         d="m 812.984,315.254 c -28.418,0 -47.929,6.074 -62.324,18.652 l 14.844,44.199 c 6.973,-6.582 21.875,-14.003 38.125,-14.003 15.82,0 26.055,9.277 26.055,23.281 0,18.125 -7.911,25.527 -30.254,42.344 -23.653,17.539 -44.59,39.433 -44.59,72.441 0,42.832 28.32,73.008 70.176,73.008 26.972,0 46.972,-6.973 61.386,-18.574 l -14.414,-38.555 c -6.035,5.508 -17.675,12.031 -33.008,12.031 -14.902,0 -24.14,-11.113 -24.14,-23.73 0,-16.27 11.562,-26.035 33.867,-42.266 26.055,-19.551 44.707,-37.695 44.707,-74.375 0,-42.812 -33.965,-74.453 -80.43,-74.453"
         style="fill:#820655;fill-opacity:1;fill-rule:nonzero;stroke:none"
         id="path3768"
         inkscape:connector-curvature="0" /><path
         d="m 1010.54,316.68 c -40.954,0 -63.239,27.89 -63.239,72.07 v 136.621 h -22.305 v 45.156 h 22.305 v 54.395 l 60.449,19.023 v -73.418 h 32.99 v -45.156 h -32.99 V 395.195 c 0,-23.222 7.83,-31.093 20.45,-31.093 5.59,0 9.24,1.406 12.54,2.343 v -43.183 c -3.73,-2.871 -16.25,-6.582 -30.2,-6.582"
         style="fill:#820655;fill-opacity:1;fill-rule:nonzero;stroke:none"
         id="path3770"
         inkscape:connector-curvature="0" /><path
         d="m 1111.83,611.445 c -17.65,0 -32.01,14.864 -32.01,32.5 0,18.184 14.36,32.578 32.01,32.578 18.22,0 33.03,-14.394 33.03,-32.578 0,-17.636 -14.81,-32.5 -33.03,-32.5 z m -29.72,-291.562 v 250.644 h 60.43 V 319.883 h -60.43"
         style="fill:#820655;fill-opacity:1;fill-rule:nonzero;stroke:none"
         id="path3772"
         inkscape:connector-curvature="0" /><path
         d="m 1271.75,316.68 c -40.91,0 -63.2,27.89 -63.2,72.07 v 136.621 h -22.28 v 45.156 h 22.28 v 54.395 l 60.45,19.023 v -73.418 h 32.97 V 525.371 H 1269 V 395.195 c 0,-23.222 7.91,-31.093 20.49,-31.093 5.55,0 9.24,1.406 12.48,2.343 v -43.183 c -3.71,-2.871 -16.27,-6.582 -30.22,-6.582"
         style="fill:#820655;fill-opacity:1;fill-rule:nonzero;stroke:none"
         id="path3774"
         inkscape:connector-curvature="0" /><path
         d="m 1430.35,315.254 c -55.82,0 -87.85,24.16 -87.85,86.953 v 168.32 h 60.39 V 395.195 c 0,-19.941 9.76,-32.48 29.33,-32.48 9.22,0 17.62,2.324 24.12,6.015 v 201.797 h 60.88 V 334.824 c -18.06,-11.562 -47.44,-19.57 -86.87,-19.57"
         style="fill:#820655;fill-opacity:1;fill-rule:nonzero;stroke:none"
         id="path3776"
         inkscape:connector-curvature="0" /><path
         d="m 1645.07,316.68 c -40.89,0 -63.22,27.89 -63.22,72.07 v 136.621 h -22.26 v 45.156 h 22.26 v 54.395 l 60.43,19.023 v -73.418 h 32.99 v -45.156 h -32.99 V 395.195 c 0,-23.222 7.93,-31.093 20.49,-31.093 5.59,0 9.3,1.406 12.5,2.343 v -43.183 c -3.63,-2.871 -16.19,-6.582 -30.2,-6.582"
         style="fill:#820655;fill-opacity:1;fill-rule:nonzero;stroke:none"
         id="path3778"
         inkscape:connector-curvature="0" /><path
         d="m 1765.46,417.539 c 3.77,-36.269 19.5,-54.394 49.24,-54.394 25.57,0 42.82,6.992 52.58,13.085 l 13.52,-42.324 c -15.84,-11.191 -40.53,-18.652 -74.03,-18.652 -65.91,0 -101.29,48.848 -101.29,130.644 0,75.332 34.44,129.278 93.93,129.278 63.22,0 93.91,-53.946 89.26,-142.246 z m 32.6,113.945 c -22.38,0 -36.81,-30.722 -36.36,-74.843 l 67.93,8.379 c 0,42.246 -9.32,66.464 -31.57,66.464"
         style="fill:#820655;fill-opacity:1;fill-rule:nonzero;stroke:none"
         id="path3780"
         inkscape:connector-curvature="0" /><path
         d="m 2006.73,316.68 c -40.93,0 -63.22,27.89 -63.22,72.07 v 136.621 h -22.3 v 45.156 h 22.3 v 54.395 l 60.45,19.023 v -73.418 h 33.01 v -45.156 h -33.01 V 395.195 c 0,-23.222 7.87,-31.093 20.41,-31.093 5.65,0 9.3,1.406 12.6,2.343 v -43.183 c -3.73,-2.871 -16.35,-6.582 -30.24,-6.582"
         style="fill:#820655;fill-opacity:1;fill-rule:nonzero;stroke:none"
         id="path3782"
         inkscape:connector-curvature="0" /><path
         d="m 1070.41,2022.26 c -4.07,11.27 -176.078,8.89 -238.246,8.47 -19.883,0 -65.43,-1.57 -65.43,-1.57 0,0 13.125,54.78 94.903,39.61 32.812,-6.13 52.636,-26.89 93.281,-22.09 -0.527,2.5 -0.332,2.34 -1.23,3.7 -2.5,4.71 -13.36,2.92 -13.497,9.78 9.805,4.04 46.954,-14.25 51.543,-13.48 -22.949,8.99 -16.796,9.82 -17.226,9.82 0,0.4 11.875,6.59 18.418,-3.66 -5.293,14.96 -20.137,3.24 -33.125,6.09 -5.313,1.19 -10.86,3.4 -17.188,3.69 6.582,6.17 13.34,1.17 17.246,0.31 0.821,1.56 1.27,1.03 2.403,2.14 -3.457,15.38 -42.676,25.08 -62.578,18.42 -6.114,-2.04 -32.676,9.46 -41.758,12.3 -35.137,10.87 -84.512,9.49 -110.41,-8.63 -32.032,-22.32 -49.942,-75.29 -20.899,-115.33 16.953,-23.35 47.422,-31.01 84.707,-34.38 -4.336,-4.27 -5.019,-8.68 -2.461,-18.38 4.942,-18.79 11.895,-33.02 30.684,-47.87 5.391,-4.31 17.344,-7.65 20.879,-13.53 2.988,-4.96 4.043,-10.86 6.113,-15.93 6.563,-0.37 13.086,-0.8 19.649,-1.24 0.058,-1.7 -0.528,-16.44 -0.528,-16.44 0,0 -17.285,-5.59 -23.379,-17.32 -2.773,-5.27 -15.742,-32.73 23.399,-47.63 -3.614,-13.89 -16.953,-24.91 -30.196,-29.05 -8.73,-2.71 -15.976,-2.5 -21.718,-7.69 -4.258,-4.05 -4.766,-15.86 -4.766,-16.7 53.574,0 106.172,-0.12 159.727,-0.12 1.543,10.04 -1.504,17.31 -12.852,20.45 -15.742,5.8 -14.687,2.79 -28.008,14.82 16.172,18.21 0.039,34.75 -15.058,37.66 0,5.78 0,21.74 0,21.74 0,0 12.343,6.13 17.148,8.39 17.988,8.32 27.734,17.14 33.691,24.57 9.219,11.66 9.668,31.37 5.079,42.7 38.903,44.62 17.853,57.01 18.863,61.35 4.81,20.43 13.54,52.52 39.46,59.65 9.02,2.5 27.67,2.54 28.47,2.54 -3.04,8.64 -1.62,18.51 -5.11,22.84 z m -223.051,0.88 v -15.96 h -11.914 c -0.41,5.36 -0.8,10.66 -1.172,15.96 z m -23.007,-1.22 c 0.82,-4.04 1.289,-9.09 1.211,-14.74 h -11.7 c 1.328,3.83 -0.488,10 -0.605,15.6 2.5,-0.48 10.293,-0.86 11.094,-0.86 z m -31.446,0.86 c 2.891,-0.4 9.141,0.81 11.992,0.36 0.821,-5.3 0.547,-11.68 1.407,-17.03 -3.594,-0.04 -10,-1.91 -11.895,-0.64 0,4.05 -1.738,11.02 -1.504,17.31 z m -18.32,-1.85 c 2.891,-0.43 6.523,0.64 9.375,0.21 0.801,-5.28 0.547,-9.8 1.367,-15.13 -3.555,-0.04 -7.344,-0.27 -9.258,1.03 0,4.09 -1.718,7.63 -1.484,13.89 z m 15.137,-24.8 c 2.441,-2.85 4.941,-5.68 7.402,-8.55 v -1.24 c -8.867,1.91 -18.398,4.91 -24.57,9.79 z m -55.215,16 c -1.485,23.25 5.957,44.89 21.484,57.61 30.645,25.14 58.711,31.63 138.047,10.3 11.797,-3.18 20.02,2.05 30.996,0.04 4.278,-0.79 9.16,-1.02 12.871,-3.93 -0.312,-1.84 -0.312,-3.65 -0.312,-3.65 0,0 -12.168,4.59 -16.524,1.43 -0.82,0 -3.632,-3.63 2.422,-7.35 8.672,5.06 14.004,1.46 15.957,0.78 -9.453,-5.94 -1.25,-13.12 -1.25,-13.51 -29.355,0.59 -44.59,11.2 -65.019,19.59 -23.633,9.77 -63.555,8.98 -87.149,-1.21 -46.093,-19.81 -49.59,-92.31 15.02,-95.33 1.953,-7.12 4.824,-17.54 7.793,-26.41 -63.281,2.72 -74.199,59.34 -74.336,61.64 z m 118.945,-137.67 c -0.019,0.07 -0.078,0.13 -0.137,0.2 -1.972,1.59 -15.918,11.45 -26.425,31.36 -4.219,9.18 -7.657,15.09 -4.063,18.89 12.754,10.25 20.586,-34.12 30.488,-50.25 0.215,-0.13 0.293,-0.2 0.137,-0.2 z m -2.012,33.6 c -2.246,11.57 -0.918,22.94 8.692,22.46 15.957,0.99 19.922,-39.31 25.547,-61.32 2.324,-0.8 -10.235,-0.25 -10.235,-0.25 0,0 -17.422,5.51 -24.004,39.11 z m 31.153,6.12 c 0,16.91 13.789,23.53 19.453,19.98 9.687,-6.68 2.187,-63.78 0.332,-66.3 -2.754,-0.05 -7.52,0.35 -7.52,0.35 0,0 -14.14,34.01 -12.265,45.97 z m -4.453,-64.71 c -0.157,0.51 -3.028,9.02 -3.203,11.02 26.914,-1.82 52.578,-1.7 81.171,0 -0.703,-2.28 -5.293,-10.78 -6.582,-11.02 -14.824,-2.79 -70.957,-1.31 -71.386,0 z m 48.984,18.74 h -13.32 c 1.015,26.32 -1.875,42.83 5.625,54.18 3.32,6.28 15.156,16.01 22.5,6.61 3.261,-12.69 -6.797,-42.47 -14.805,-60.79 z m 41.602,63.21 c 11.718,-2.55 6.445,-46.38 -20.86,-63.1 -1.621,0 -8.554,-0.46 -10.215,-0.46 7.5,19.92 11.446,66.3 31.075,63.56 z m -30.704,-89.31 c 0,0 -18.085,-11.25 -39.921,-15.35 0,4.49 0.351,15 0.351,15 z m 4.512,-106.7 c 7.461,-13.06 39.707,-15.31 33.184,-20.29 -43.34,0 -124.297,0 -124.297,0 0,0 0.078,1.08 0.547,3.91 60.469,15.37 31.406,58.22 73.984,75.33 1.211,0.51 0,-39.94 0,-39.94 -1.816,-8.44 4.551,-14.22 -25.762,-30.28 0,-0.43 35.254,4.65 42.344,11.27 z m -54.961,30.3 c -0.176,0.21 -17.07,20.68 -2.754,36.19 22.403,24.26 75,24.2 82.52,59.64 2.109,0.8 17.226,10.22 18.066,10.22 9.532,-61.47 -85.547,-54.53 -97.832,-106.05 z m 83.145,104.33 c -6.289,-3.72 -9.785,-2.02 -9.883,-2.02 0,0 17.324,11.92 24.57,50.44 5.742,13.24 13.36,12.67 17.014,10.21 16.35,-10.21 -20.959,-54.21 -31.701,-58.63 z m 28.554,70.41 c -8.203,-1.66 -13.105,-2.81 -17.441,-9.97 -3.34,6.2 -2.5,6.2 -12.305,9.52 -12.871,0 -17.793,-4.16 -21.699,-10.48 -0.898,5.62 -8.398,10.07 -15.937,11.75 -13.868,0 -14.961,-5.58 -20.567,-11.75 0,0 -4.355,13.3 -17.168,12.16 -11.797,0 -18.437,-7.13 -20.312,-15.08 -4.414,4.75 -3.672,11.95 -17.852,12.64 -5.683,0.43 -14.648,-3.98 -16.328,-11.76 -0.781,0 -6.641,7.15 -13.125,9.77 -0.801,3.68 -7.344,44.23 -18.047,55.16 0,0.07 5.899,2.37 14.102,-3.07 11.406,-6.16 16.484,-43.61 16.484,-43.61 l 8.067,5.44 c 0,0 -0.528,23.85 -5.645,40.71 3.145,0.09 9.531,0.89 12.969,-3.21 6.152,-6.75 8.867,-33.26 8.867,-33.26 l 7.461,5.34 c 0,0 -2.031,19.64 -3.379,32.98 3.555,0.04 7.52,0.23 11.074,-4.39 4.746,-6.98 6.758,-24.16 6.758,-24.16 l 6.875,6.82 c 0,0 -1.953,11.18 -3.223,22.14 57.207,0.86 124.918,1.37 135.118,-0.67 0.39,0 -16.31,-16.95 -24.747,-53.02 z m 62.017,68.1 c -11.51,-2.93 -137.173,4.6 -202.368,-1.37 v 15.96 c 91.601,4.22 201.878,-3.4 201.878,-3.4 0,0 2.03,-6.09 0.49,-11.19"
         style="fill:#820655;fill-opacity:1;fill-rule:evenodd;stroke:none"
         id="path3784"
         inkscape:connector-curvature="0" /><path
         d="m 1733.47,2028.01 c -34.55,64.53 -106.21,46.28 -116.95,41.24 -30.76,-8.71 -60.8,-50.58 -59.98,-92.01 -39.14,41.67 -20.74,122.35 -20.35,126.06 0.54,9.61 1.76,12.5 0.11,18.25 9.3,2.59 9.38,2.54 15.75,10.15 24.65,35.58 4.45,40.51 -9.69,23.11 1.56,23.14 -10.63,13.71 -17.19,11.05 -0.54,16.38 -12.24,7.61 -14.72,3.67 -7.19,24.18 -26.68,3.43 -31.92,-4.88 -22.56,7.37 -33.98,-3.67 -34.39,-3.67 20.99,-5.23 19.25,-11.04 19.66,-11.04 -2.46,-7.67 -9.37,-10.08 -19.66,-9.83 0.41,-1.25 15.95,-7.71 24.55,2.45 9.33,13.89 -8.95,18.49 -8.95,19.3 10.55,-0.1 22.19,-4.15 28.64,-5.8 23.39,-6.01 40.33,-16.06 41.71,-39.24 0.63,-11.03 -3.18,-23.69 -4.92,-31.94 -4.31,-20.27 -4.86,-51.91 0,-69.93 5.43,-20.44 30.39,-79.91 43.07,-53.95 5.45,11.25 5.78,30.63 15.21,56.4 11.35,30.76 46.68,56.08 89.61,47.21 75.84,-15.76 66.33,-76.46 63.99,-83.38 -2.31,-6.82 -7.42,-15.24 -7.42,-15.24 0,0 12.42,51.96 -28.13,60.71 10.63,-10.97 18.75,-60.69 -5.08,-81.01 21.31,39.67 3.52,83.35 -36.03,92.5 16.15,-16.06 36.03,-53.87 14.7,-83.38 2.99,26.42 1.96,63.53 -45.11,72.19 66.79,-38.27 22.42,-110.69 22.42,-111.49 58.98,56.95 30.35,99.37 30.35,99.37 0,0 31.93,-22.45 -0.86,-89.17 48.56,29.12 34.3,78.35 34.73,78.35 18.01,-11.93 4.68,-53.52 4.68,-54.31 0.83,0 13.91,14.1 18.62,30.82 5.17,18.41 -0.57,36.6 -6.45,47.44"
         style="fill:#820655;fill-opacity:1;fill-rule:evenodd;stroke:none"
         id="path3786"
         inkscape:connector-curvature="0" /><path
         d="m 1484.66,2137.66 c 1.61,-0.94 11.02,6.56 11.02,7.36 -6.56,1.87 -9.41,4.88 -18.4,4.92 0.55,-2.56 3.58,-11.02 7.38,-12.28"
         style="fill:#820655;fill-opacity:1;fill-rule:evenodd;stroke:none"
         id="path3788"
         inkscape:connector-curvature="0" /><path
         d="m 1533.45,1726.84 h 3.71 c -0.68,-4.16 -3.71,-9 -3.71,-9.84 9.96,0.66 12.62,3.63 14.73,8.65 -0.35,8.28 -5.45,9.08 -9.79,13.48 0.16,0.8 5.36,5.35 6.16,8.55 1.05,4.43 -5.57,17.97 -3.67,24.57 1.69,5.86 7.1,5.74 8.55,12.25 -2.42,0.45 -4.88,0.84 -7.34,1.25 -5.82,27.73 13.12,39.7 15.82,63.58 13.92,-2.84 27.42,-1.11 38.16,3.93 -23.18,0.94 -62.23,9.91 -76.97,18.3 -23.3,7.79 -64.38,55.76 -69.63,64.46 -10.84,18 -21.43,51.93 -12.89,85.33 6.44,25.8 37.62,84.1 39.26,95.74 -1.33,11.73 -17.13,17.95 -19.65,18.39 0.54,-3.63 1.79,-4.55 2.46,-6.11 -38.87,-15.01 -29.45,-43.37 -14.75,-41.75 0.55,-2.39 -4.78,-9.44 6.15,-12.26 -2.63,-7.84 -27.03,-46.52 -28.24,-74.85 -3.38,-78.63 38.75,-101.4 44.18,-110.47 18.09,-29.96 -5.39,-48.18 -16.11,-50.29 -14.2,-2.77 -23.09,-5.52 -30.49,-3.36 -6.43,1.82 -9.22,9.55 -14.75,9.49 -11.46,-0.57 -12.61,-9.57 -19.55,-14.29 0,-1.96 15.36,8.52 14.63,3.22 -1.03,-4.01 -6.99,-11.38 -4.92,-22.06 4.04,2.34 1.35,3.39 3.69,7.35 2.48,4.23 8.83,6.39 12.29,9.82 3.65,-0.39 7.32,-0.81 11.03,-1.21 0.43,-0.41 0.82,-0.82 1.21,-1.23 -0.04,-9.33 -2.89,-15.97 -8.59,-19.68 v -2.44 c 8.67,2.12 16.02,8.87 17.19,18.43 17.85,0.07 28.9,-1.33 39.29,-7.37 0.9,3.26 -0.5,6.88 1.22,9.83 7.34,5.59 15.72,3.71 25.35,8.79 1.99,1.01 6.32,4.3 7.77,5.96 0.43,0.39 1.74,0.11 1.74,-0.31 30.6,-23.65 12.17,-87.39 11.21,-90.67 2.85,-1.29 3.53,-1.91 3.53,-1.91 0,0 0.3,-0.7 0.82,-1.62 0.28,-0.2 0.51,-0.33 0.55,-0.41 13.4,25.88 10.16,68.56 3.01,85.05 -6.31,14.6 -34.55,40.21 -46.6,51.59 v 1.19 c 5.33,-4.47 42.24,-29.68 68.2,-33.09 0.47,-14.96 -10.55,-41.62 -10.55,-42.03 -0.03,-8.77 0,-16.6 1.23,-23.04 -1.46,-6.39 -0.84,-16.59 -2.94,-24.73 0,-2.87 0.91,-5.88 0.91,-8.69 -1.79,-3.75 -7.69,-3.75 -9,-9.59 -2.27,0.37 -3.91,2.34 -4.81,3.75 -1.26,1.05 -4.39,3.38 -4.39,3.38 0,0 0.02,0.06 0.04,0.15 -0.06,0.02 -0.16,0.06 -0.22,0.1 -5.19,-2.52 -7.46,-5.43 -18.84,-2.44 -3.19,-3.32 -6.16,-5.59 -8.6,-9.77 -9.24,1.1 -24.8,7.72 -35.6,3.68 -15.31,-5.82 -33.87,-26.68 -33.87,-26.68 0,0 -4.73,-6.76 -0.47,-8.89 3.48,-1.56 20.28,-1.06 28.28,-0.88 6.88,0.14 39.53,0.41 47.76,2.09 6.17,1.23 29.24,0.88 22.11,4.86 -4.52,3.03 -39.24,2.43 -39.24,2.43 -13.15,0 -28.24,0.74 -27.85,1.15 9.18,16.27 36.25,17.11 37.54,16.19 0.48,-0.76 0.23,-3.28 0.09,-7.52 h 2.44 c 3.01,6.8 7.31,8.24 11.1,13.57 3.47,-0.13 5.21,-0.52 7.36,-1.25 -4.39,-8.84 6.49,-18.08 6.49,-17.67 2.69,2.48 -1.12,8.22 0.86,11.54 2.34,2.74 6.23,3.3 8.57,6.13 5.66,-1.27 5.39,-5.56 7.34,-9.82"
         style="fill:#820655;fill-opacity:1;fill-rule:evenodd;stroke:none"
         id="path3790"
         inkscape:connector-curvature="0" /><path
         d="m 1617.89,1990.52 c 10.64,-8.39 15.66,-9.54 23.88,-25.95 14.73,-29.45 -8.38,-49.83 -8.38,-50.66 34.07,21.23 29.48,83.07 -8.94,91.09 5.1,-4.57 19.45,-12.46 23.16,-34.81 0,-0.83 -14.22,20.83 -29.72,20.33"
         style="fill:#820655;fill-opacity:1;fill-rule:evenodd;stroke:none"
         id="path3792"
         inkscape:connector-curvature="0" /><path
         d="m 1475.95,1942.62 c -1.87,1.6 -22.05,23.85 -12.15,75.97 -0.82,0 -30.62,-49.43 12.15,-75.97"
         style="fill:#820655;fill-opacity:1;fill-rule:evenodd;stroke:none"
         id="path3794"
         inkscape:connector-curvature="0" /><path
         d="m 1575.52,1873.7 c -3.84,-1.25 -33.98,-7.02 -69.61,32.28 -0.45,-0.67 23.99,-52.7 69.61,-32.28"
         style="fill:#820655;fill-opacity:1;fill-rule:evenodd;stroke:none"
         id="path3796"
         inkscape:connector-curvature="0" /><path
         d="m 1575.52,1873.7 c 0.32,0.07 0.47,0.15 0.43,0.15 -0.11,-0.06 -0.27,-0.1 -0.43,-0.15"
         style="fill:#820655;fill-opacity:1;fill-rule:evenodd;stroke:none"
         id="path3798"
         inkscape:connector-curvature="0" /><path
         d="m 1506.38,1931.37 c -0.58,-0.85 24.22,-67.35 80.35,-45.62 -4.72,-1.3 -41.97,-6.93 -80.35,45.62"
         style="fill:#820655;fill-opacity:1;fill-rule:evenodd;stroke:none"
         id="path3800"
         inkscape:connector-curvature="0" /><path
         d="m 1586.73,1885.75 c 0.32,0.09 0.55,0.15 0.51,0.17 -0.19,-0.08 -0.35,-0.13 -0.51,-0.17"
         style="fill:#820655;fill-opacity:1;fill-rule:evenodd;stroke:none"
         id="path3802"
         inkscape:connector-curvature="0" /><path
         d="m 1577.71,1912.2 c -0.35,0.19 -0.55,0.28 -0.55,0.24 0.2,-0.08 0.32,-0.16 0.55,-0.24"
         style="fill:#820655;fill-opacity:1;fill-rule:evenodd;stroke:none"
         id="path3804"
         inkscape:connector-curvature="0" /><path
         d="m 1577.71,1912.2 c 4.14,-2.59 33.54,-26.09 21.09,-89.97 0.98,0.13 32.97,63.61 -21.09,89.97"
         style="fill:#820655;fill-opacity:1;fill-rule:evenodd;stroke:none"
         id="path3806"
         inkscape:connector-curvature="0" /><path
         d="m 1588.43,1919.28 c -0.33,0.15 -0.52,0.22 -0.48,0.17 0.15,-0.04 0.35,-0.11 0.48,-0.17"
         style="fill:#820655;fill-opacity:1;fill-rule:evenodd;stroke:none"
         id="path3808"
         inkscape:connector-curvature="0" /><path
         d="m 1588.43,1919.28 c 4.57,-1.96 37,-21.02 33.81,-85.98 0.94,0.24 23.56,67.6 -33.81,85.98"
         style="fill:#820655;fill-opacity:1;fill-rule:evenodd;stroke:none"
         id="path3810"
         inkscape:connector-curvature="0" /><path
         d="m 1588.41,1929.39 c 0.12,-0.03 0.22,-0.03 0.34,-0.04 -0.22,0.04 -0.34,0.06 -0.34,0.04"
         style="fill:#820655;fill-opacity:1;fill-rule:evenodd;stroke:none"
         id="path3812"
         inkscape:connector-curvature="0" /><path
         d="m 1588.75,1929.35 c 3.73,-0.68 46.77,-14.41 51.81,-76.6 0.9,0.43 14.1,70.86 -51.81,76.6"
         style="fill:#820655;fill-opacity:1;fill-rule:evenodd;stroke:none"
         id="path3814"
         inkscape:connector-curvature="0" /><path
         d="m 1486.23,1947.66 c 0,-0.29 -13.75,17.36 -8.56,53.03 -0.58,0 -17.93,-32.89 8.56,-53.03"
         style="fill:#820655;fill-opacity:1;fill-rule:evenodd;stroke:none"
         id="path3816"
         inkscape:connector-curvature="0" /><path
         d="m 1586.5,1732.68 c -12.09,-0.12 -16.33,-6.52 -15.94,-7.32 10.82,-2.62 26.76,-3.54 38.34,-12.11 3.17,0.23 7.05,-0.24 7.05,-0.24 0,0 -6.01,17.46 -29.45,19.67"
         style="fill:#820655;fill-opacity:1;fill-rule:evenodd;stroke:none"
         id="path3818"
         inkscape:connector-curvature="0" /><path
         d="m 1526.4,1710.57 v -2.46 c 8.6,-0.31 22.48,-2.07 30.65,-2.4 21.87,-0.94 51.66,3.34 54.55,4.33 3.45,0 4.35,2.15 4.35,2.97 -11.83,0.41 -23.69,0.84 -35.54,1.23 -6.08,-4.29 -43.21,-1.66 -54.01,-3.67"
         style="fill:#820655;fill-opacity:1;fill-rule:evenodd;stroke:none"
         id="path3820"
         inkscape:connector-curvature="0" /><path
         d="m 1518.57,1750.75 -0.7,-0.65 3.57,-3.57 1.62,-0.67 0.28,0.75 -0.63,2.46 -4.14,1.68"
         style="fill:#820655;fill-opacity:1;fill-rule:evenodd;stroke:none"
         id="path3822"
         inkscape:connector-curvature="0" /><path
         d="m 1270.99,1811.94 c -0.66,14.27 -0.66,32.36 0,46.61 44.61,5.06 74.85,29.09 85.26,61.99 32.54,102.66 -74.16,114.27 -84.05,119.68 -0.39,8.96 0.78,17.69 0.39,26.74 68.5,8.82 92.74,71.13 56.06,125.41 -15.55,23.02 -65.45,31.91 -66.25,31.91 -0.59,32.83 -4.44,78.53 -15.26,97.12 -6.11,5.73 -10.17,6.44 -16.68,7.19 -37.5,0.98 -29.43,-93.65 -30.76,-97.49 -16.7,2.05 -30.74,8.38 -36.6,22.36 -5.27,12.69 1.76,23.98 1.76,23.98 22.64,1.17 31.09,29.77 30.04,57.31 -0.33,8.93 -3.44,22.3 0,28.2 0.29,14.28 -5.57,8.14 -12.31,15.14 -1.79,2.73 2.43,9.39 4.91,11.84 9.55,9.43 20.37,19.04 31.97,27.02 -9.1,-2.67 -30.16,-21.62 -33.22,-21.93 -11.55,-2.41 5.37,42.81 4.96,42.81 -4.24,-10.08 -9.53,-23.02 -12.72,-35.96 -2.61,-10.53 8.38,-13.01 0.43,-22.96 -1.54,-1.93 -5.19,0.18 -8.59,-1.24 -3.89,-1.63 -55.35,-47.24 -41.25,-76.44 1.27,-2.69 5.12,-8.11 3.22,-14.38 -2.56,-8.33 -9.78,-15.23 -12.28,-24.54 -15.84,-58.82 34.14,-82.58 77.91,-87.29 0.39,-0.43 -0.24,-25.24 0.29,-37.95 -44.26,-4.76 -79.81,-21.38 -96.56,-53.92 -8.52,-16.42 -9.89,-44.42 0,-61.39 19.45,-33.47 48.47,-47.62 85.84,-63.78 0.09,-7.39 0.29,-33.47 0.29,-36.32 -40.37,-8.26 -79.84,-24.39 -98.42,-54.48 -12.01,-19.4 -11.82,-50.89 0,-69.99 15.12,-24.39 59.61,-49.73 94.47,-54 -0.27,-7.8 1.08,-34.61 0,-37.99 -10.23,-1.11 -39.35,-15.41 -54,-46.64 -16.54,-49.65 20.86,-70.29 52.77,-85.92 -0.17,-39.61 -5.9,-83.07 -4.94,-112.87 5.43,-8.54 10.78,-15.29 20.9,-18.46 4.14,-1.89 16.21,2.99 24.53,2.46 3.63,-0.21 4.65,-1.03 6.15,-2.46 7.72,-7.3 41.94,5.22 46.63,15.94 1.01,2.38 0,22.83 0,31.97 -0.4,24.14 -0.81,44.98 -1.2,69.07 8.07,7.55 19.55,21.28 25.69,30.52 33.2,50.16 -20.71,47.39 -29.38,46.41 0.39,6.15 -0.54,11.87 -0.11,18.01 44.21,8.57 81.32,20.31 91.99,62.79 19.78,78.91 -60.06,95.1 -91.88,95.92 z m -49.92,504.02 c 4.53,6.15 11.21,8.93 17.77,5.09 13.07,-7.56 14.75,-70.12 16.18,-90.64 0.97,-13.61 4.64,-73.32 1.23,-83.44 -10.14,-2.34 -42.64,-7.87 -42.64,-7.87 0,0 -9.84,144.01 7.46,176.86 z m -32.3,-127.26 c 0.7,9.02 6.58,19.17 5.15,20.93 -3.18,1.67 -27.65,-11.09 -28.47,-11.09 2.42,7.1 16.85,21.48 12.85,21.91 -1.8,1.58 -32.48,-3.54 -38.64,-3.54 0,0.41 21.33,11.56 20.43,13.52 -0.11,2.46 -27.73,10.07 -29,11.04 4.16,1.69 16.74,4.29 16.39,6.38 0.17,3.72 -10.04,10.95 -16.39,14.46 4.16,1.38 16,2.99 16.95,5.58 0.8,6.38 -6.85,8.98 -9.61,16.52 -0.58,0.43 13.48,15.14 7.15,17.78 -22.03,9.08 24.44,72.5 27.95,72.25 8.22,-0.38 9.01,-1.88 13.71,-5.09 -0.43,-11.48 -6.25,-15.73 -8.71,-24.56 -2.05,-7.47 -5.72,-21.39 -4.73,-29.73 3.87,2.55 5.43,5.58 8.58,8.89 -1.7,9.65 2.44,14.89 5.12,21.84 9.12,-35.59 -10.8,-62.91 -27.45,-64.26 -0.03,0 -0.03,-0.02 0,-0.04 -0.39,-0.18 -0.7,-1.21 -0.7,-1.21 v -0.01 c -2.93,-7.57 -2.09,-5.12 -3.32,-9.72 -2.73,-10.49 -0.39,-41.78 42.68,-45.02 -0.08,-10.7 0.9,-21.24 -0.14,-30.7 -3.28,-1.68 -9.45,-6.13 -9.8,-6.13 z m -39.91,-190.54 c 0,0.41 23.75,16.77 22.72,20.3 -2.01,5.97 -48.28,8.13 -52.79,11.93 -3.77,6.05 30.07,1.29 30.66,6.13 2.13,4.32 -29.43,31.5 -29.43,31.92 12.93,-4.2 34.49,-19.58 39.33,-15.4 3.56,2.73 -20.92,46.47 -20.92,47.29 11.41,-11.45 33.19,-31.19 37.21,-29.34 4.92,2.98 -10.19,39.66 -7.73,41.63 10.43,-3.24 31.91,-32.01 36.87,-29.69 3.71,1.74 -7.42,32.12 -7.42,33.36 13.69,-6.98 46.03,-34.37 50.14,-32.87 4.59,5.1 -20.73,37.38 -20.73,37.78 16.37,-5.75 71.51,-23.65 73.68,-20.87 2.53,3.58 -42.99,33.97 -42.99,34.36 65.58,2.38 66.27,6.52 66.27,7.36 1.68,5.53 -49.44,18.42 -50.28,18.42 29.59,10.48 37.6,15.96 38.01,15.96 -4.22,7.24 -34.26,4 -45.41,3.67 -0.78,11.85 -1.62,24.69 -2.44,36.54 30.59,-1.97 61.72,-22.27 68.71,-46.34 10.55,-35.96 4.63,-66.78 -25.88,-84.05 -27.4,-15.53 -88.42,-16.27 -101.66,-19.29 -30.47,-7.09 -23.36,-25.42 -14.22,-36.63 0.43,-11.08 1.7,-16.24 -0.52,-23.39 -0.84,-6.1 -37.82,-14.46 -41.18,-8.78 z m 67.78,-69.29 c -2.05,0 -9.87,-1.57 -11.96,-1.57 0,26.15 1.78,119.57 -0.58,127.08 15.68,3.73 40.68,4.75 58.32,9.12 0.21,-25.84 1.35,-118.58 1.35,-123.93 -2.62,-3.73 -31.92,-10.04 -40.32,-10.03 -1.36,11.65 -3.08,85.56 -3.08,85.56 0,0 -2.89,-13.03 -3.73,-13.03 -0.3,-22.38 0.43,-72.78 0,-73.2 z m -50.76,-159.82 c 5.89,9.22 6.87,18.86 8.08,23.77 -5.74,1.62 -61.31,-0.92 -61.31,-0.53 8.85,4.2 31.33,11.85 30.69,14.69 1.15,6.32 -38.66,25.11 -41.68,29.49 14.33,-1.94 39.43,-9.96 40.47,-6.1 1.85,4.13 -23.34,41.31 -23.34,41.68 14.82,-7.07 37.36,-28.6 40.91,-26.58 3.91,1.53 -11.48,40.51 -11.48,41.3 9.73,-6.47 29.61,-27.73 33.18,-25.74 2.21,1.23 -6.15,35.18 -6.15,36.84 11.05,-10.67 29.3,-28.6 32.27,-27.49 3.34,0.41 -2.84,36.88 -2.84,37.28 14.91,-9.92 35.65,-33.38 40.53,-32.5 4.49,2.68 -7.38,32.26 -7.38,32.69 10.92,-2.99 46.01,-28.07 50.94,-24.62 4.66,7.89 -22.72,32.61 -22.72,33.02 14.75,-2.05 55.9,-10.35 60.18,-3.67 2.03,6.41 -42.58,24.12 -42.99,24.53 8.67,2.38 52.26,15.17 48.79,21.12 -4.05,6.4 -53.85,0 -51.23,3.45 0.15,6.12 28.71,20.76 28.12,25.45 -4.28,7.3 -26.64,-1.81 -37.93,-2.13 0.04,15.22 1.06,30.51 1.21,44.16 31.98,-3.43 60.51,-18.32 72.43,-42.96 22.81,-47.38 -4.65,-95.1 -39.32,-109.23 -29.32,-11.91 -74.71,-8.22 -107.95,-17.17 -31.17,-8.36 -23.05,-35.3 -12.23,-41.74 v -41.71 c -5.9,-2.99 -18.88,-7.3 -19.25,-7.3 z m 97.73,-44.22 c -0.8,-2.17 -0.23,-1.25 -1.21,-2.52 -7.19,-5.7 -25.94,-6.49 -38.05,-6.13 -0.82,27.79 -1.83,131.6 0,136.94 10.94,1.62 37.23,4.23 38.05,4.23 0.39,-22.93 3.34,-128.97 1.21,-132.52 z m -43.32,-8.81 c -6.37,-1.82 -10.27,-2.7 -15.61,-3.5 -0.17,21.49 -0.91,129.55 3.54,136.49 1.52,2.53 7.93,3.14 8.75,3.14 0.16,-51.54 3.46,-87.5 3.32,-136.13 z m -2.07,-263.65 c -4.92,-0.45 -9.81,-0.86 -14.77,-1.25 3.21,27.87 2.58,55.88 -3.65,82.22 -1.23,5.14 5.06,19.48 4.3,22.25 -1.35,4.96 -3.26,10.04 -4.06,13.57 -0.94,4.13 0.87,9.3 1.36,11.51 2.97,13.51 3.38,57.6 3.38,57.6 0,0 2.07,7.11 16.8,8.34 0,0 3.51,-133.15 -3.36,-194.24 z m 14.73,-4.91 c -3.11,0.4 -2.49,51.55 -2.49,63.36 4.81,11.25 35.59,40.94 35.59,40.94 0,0 0.74,-67.05 1.08,-91.01 -7.43,-11.53 -33.52,-15.61 -34.18,-13.29 z m 47.07,139.28 c -0.71,3.42 -5.26,8.26 -4.56,11.1 0.88,6.6 11.16,14.82 10.14,18.9 -2.89,2.97 -8.08,1.97 -13.59,1.08 0,4.59 0.19,6.75 0.19,11.31 13.79,0.19 29.93,-0.4 29.51,-16.31 -0.33,-12.8 -26.83,-41.45 -46.42,-61.06 -9.14,-9.12 -28.13,-30.66 -28.52,-30.66 -0.07,5.86 -0.04,10.35 2.48,13.49 1.78,4.71 12.52,10.47 13.3,11.92 1.08,3.36 -3.22,4.43 -2.48,6.27 2.82,4.47 17.72,9.61 19.91,11.87 1.17,3.97 -0.32,8.83 0.23,10.28 1.56,6.28 18.63,9.43 19.81,11.81 z m -52.89,60.76 c 0,0 34.84,4.13 35.27,3.7 0.02,-13.79 3.1,-48.23 -1.21,-60.24 -4.05,-10.96 -31.53,-41.64 -31.94,-41.64 0.1,24.55 -2.12,98.18 -2.12,98.18 z m 104.72,36.23 c -15.72,-10.68 -53.87,-25.46 -104.02,-26.5 -51,-0.98 -50.16,-28.4 -39.3,-34.02 0.67,-10.1 0,-4.34 0,-17.82 -6.95,0.12 -27.62,-0.87 -29.24,-0.87 0,0.44 12.99,10.27 12.29,14.16 -0.94,3.9 -26.25,6.66 -25.76,7.95 0.52,3.96 21.87,5.78 23.06,8.94 0.94,4.69 -24.68,16.52 -24.31,18.13 3.28,1.62 30.68,-5.3 34.51,-1.82 2.36,3.87 -19.79,23.46 -19.79,23.85 14.05,-2.41 34.03,-13.07 35.35,-11 2.41,2.31 -9.55,24.88 -9.55,25.68 6.45,-4.1 34.3,-21.13 35.28,-19.57 2.22,1.55 -9.53,22.86 -9.53,23.29 7.65,-2.25 43.51,-25.9 47.05,-24.73 4.08,2.11 -17.6,30.06 -17.6,30.88 10.23,-4.14 54.96,-21.41 57.67,-18.42 1.39,2.87 -26.97,24.18 -26.97,24.57 16.02,-0.12 55.55,1.17 56.31,5.21 0.78,4.28 -42.79,13.42 -44.06,14.44 0.08,1.87 50.68,17.65 47.65,21.48 -9.41,3.58 -49.7,2.99 -51.34,2.99 1.99,4.84 37.32,24.9 35.62,26.97 -2.65,2.5 -36.95,-6.07 -42.26,-6.07 -1.02,8.3 -0.59,22.64 -0.71,32.87 27.27,0.27 62.5,-12.11 73.64,-29.2 20.23,-31.15 9.59,-75.47 -13.99,-91.39"
         style="fill:#820655;fill-opacity:1;fill-rule:evenodd;stroke:none"
         id="path3824"
         inkscape:connector-curvature="0" /><path
         d="m 709.352,1522.13 -19.454,-4.8 c -1.464,-0.29 -2.304,-0.57 -3.867,0.12 -2.187,0.95 -3.359,2.94 -3.359,5.21 0,2.93 2.578,4.82 5.391,4.82 1.132,0 3.476,-0.62 4.765,-0.84 l 16.524,-2.89 z m 4.218,10.9 -14.609,9.14 c -2.578,1.47 -5.547,3.01 -5.547,6.47 0,3.04 2.285,5.25 5.313,5.25 3.652,0 4.687,-2.81 6.445,-5.37 l 9.336,-14.43 z m 0.938,-21.56 -10.703,-16.62 c -1.426,-2.09 -2.578,-3.09 -5.274,-3.09 -2.832,0 -5,2.17 -5,4.96 0,3.38 2.774,4.63 5.196,6.25 l 14.609,9.49 z m 10.215,-0.12 c -6.035,0 -11.153,4.92 -11.153,11.13 0,6.02 4.785,11.14 11.055,11.14 5.938,0 11.055,-4.91 11.055,-10.8 0,-6.19 -4.649,-11.47 -10.957,-11.47 z m -0.918,26.43 -4.2,19.24 c -0.332,1.62 -0.585,2.55 0,4.06 0.704,2.11 2.637,3.4 4.786,3.4 2.91,0 5.586,-2.44 5.586,-5.37 0,-1.06 -0.723,-3.46 -0.938,-4.54 l -3.613,-16.79 z m 1.523,-30.24 3.926,-17.13 c 0.254,-1.01 0.84,-3.34 0.84,-4.53 0,-2.87 -2.793,-5.15 -5.586,-5.15 -2.481,0 -5.137,2.54 -5.137,5.15 0,1.19 0.567,3.52 0.82,4.53 l 3.477,17.13 z m 9.297,26.68 9.219,14.42 c 1.719,2.79 2.793,5.49 6.601,5.49 2.813,0 5.157,-2.45 5.157,-5.24 0,-3.79 -2.696,-4.86 -5.625,-6.72 l -14.2,-9.14 z m 1.152,-21.76 14.786,-9.49 c 2.539,-1.62 5.234,-2.77 5.234,-6.25 0,-2.95 -2.305,-5.33 -5.352,-5.33 -2.324,0 -3.359,1.02 -4.531,2.77 l -11.172,17.31 z m 4.219,11.29 16.738,3.32 c 1.172,0.28 3.516,0.71 4.571,0.71 2.773,0 5.351,-2.31 5.351,-5.12 0,-2.66 -2.578,-5.08 -5.254,-5.08 -1.523,0 -3.242,0.47 -4.668,0.69 l -16.738,3.86 v 1.62"
         style="fill:#820655;fill-opacity:1;fill-rule:nonzero;stroke:none"
         id="path3826"
         inkscape:connector-curvature="0" /><path
         d="m 1698.45,1522.29 -19.47,-4.81 c -1.5,-0.35 -2.32,-0.56 -3.85,0.12 -2.18,0.92 -3.38,2.95 -3.38,5.24 0,2.89 2.6,4.76 5.38,4.76 1.15,0 3.45,-0.6 4.72,-0.84 l 16.6,-2.87 z m 4.14,10.9 -14.53,9.12 c -2.54,1.48 -5.62,3.07 -5.62,6.48 0,3.03 2.36,5.22 5.43,5.22 3.57,0 4.61,-2.78 6.36,-5.37 l 9.32,-14.42 z m 0.96,-21.56 -10.72,-16.63 c -1.39,-2.09 -2.56,-3.08 -5.2,-3.08 -2.83,0 -5.08,2.11 -5.08,4.94 0,3.38 2.86,4.63 5.32,6.27 l 14.51,9.47 z m 10.25,-0.12 c -6.05,0 -11.21,4.94 -11.21,11.09 0,6.02 4.81,11.15 11.1,11.15 5.9,0 11.07,-4.88 11.07,-10.82 0,-6.17 -4.69,-11.42 -10.96,-11.42 z m -0.93,26.46 -4.18,19.18 c -0.39,1.64 -0.61,2.58 0,4.06 0.66,2.09 2.67,3.4 4.76,3.4 2.93,0 5.59,-2.46 5.59,-5.33 0,-1.11 -0.7,-3.48 -0.94,-4.55 l -3.59,-16.76 z m 1.54,-30.29 3.93,-17.09 c 0.23,-1.02 0.8,-3.38 0.8,-4.55 0,-2.85 -2.76,-5.16 -5.61,-5.16 -2.4,0 -5.12,2.54 -5.12,5.16 0,1.17 0.63,3.53 0.84,4.55 l 3.5,17.09 z m 9.3,26.68 9.18,14.43 c 1.74,2.8 2.79,5.45 6.68,5.45 2.75,0 5.09,-2.42 5.09,-5.23 0,-3.79 -2.67,-4.87 -5.56,-6.7 l -14.22,-9.12 z m 1.17,-21.76 14.78,-9.47 c 2.56,-1.64 5.24,-2.77 5.24,-6.27 0,-2.91 -2.33,-5.33 -5.33,-5.33 -2.37,0 -3.46,1.03 -4.59,2.77 l -11.19,17.33 z m 4.2,11.29 16.76,3.34 c 1.17,0.25 3.51,0.7 4.55,0.7 2.77,0 5.33,-2.3 5.33,-5.09 0,-2.66 -2.56,-5.14 -5.2,-5.14 -1.56,0 -3.32,0.47 -4.68,0.7 l -16.76,3.89 v 1.6"
         style="fill:#820655;fill-opacity:1;fill-rule:nonzero;stroke:none"
         id="path3828"
         inkscape:connector-curvature="0" /><path
         d="m 1040.74,2473.63 -7.17,-1.81 c -3.2,-0.53 -5.66,1.38 -7.58,5.85 -2.46,5.91 -6.25,16.98 -10.66,29.83 0,0 -4.45,13.15 -4.57,13.5 0.08,-0.12 0.58,0.06 0.58,0.06 v 0 c 0,-0.08 2.13,-1.56 2.13,-1.56 4.34,-3.07 43.64,-26.44 51.98,-29.93 8.06,-3.38 13,-5.19 20.99,-3.27 l 9.92,3.09 c 0,0 8.48,2.47 24.63,4.38 l 15.9,1.38 c 1.64,0.18 2.7,0.6 2.52,1.98 -0.12,1.16 -0.92,1.28 -2.6,1.1 l -2.22,-0.25 c -2.23,-0.26 -3.87,0.02 -4.89,0.82 -0.82,0.64 -1.27,1.61 -1.44,2.96 -0.18,1.72 0.12,5.33 1.21,9.32 l 5.58,22.38 c 0.2,0.88 0.43,1.15 1.1,1.21 l 33.42,3.81 c 0.68,0.06 1.07,-0.12 1.42,-0.77 l 15.63,-30.36 c 0.27,-0.52 0.35,-0.96 0.35,-1.35 0.14,-0.45 0.12,-1 -0.22,-1.39 -0.21,-0.32 -0.56,-0.49 -0.93,-0.57 l -0.06,-0.04 c -1.37,-0.31 -2.19,-0.66 -2.07,-1.78 0.15,-1.15 1.74,-1.06 4.18,-0.89 l 0.66,0.04 28.32,2.94 c 4.51,0.52 6.13,0.91 6.68,1.63 l 0.04,0.1 c 0.16,0.23 0.27,0.5 0.23,0.79 0,0.24 -0.11,0.42 -0.27,0.58 -0.37,0.62 -1.17,0.65 -2.05,0.54 l -6.35,-0.11 c -3.49,0.45 -8,2.49 -14.92,14.7 l -30.19,55.57 -17.5,32.28 c -1.86,3.17 -2.97,4.63 -4.5,4.45 -1.64,-0.2 -2.38,-2.17 -3.63,-6.59 l -26.8,-98.38 c -1.48,-5.42 -3,-9.98 -6.54,-12.67 -3.55,-1.81 -11.15,-1 -11.15,-1 -8.22,0.33 -16.33,4.11 -24.2,7.77 l -1.43,0.66 c -7.34,3.37 -45.58,23.98 -53,28.88 3.14,6.53 17.38,35.35 20.33,41.12 3.67,7.2 7.4,12.24 11.74,15.89 2.4,1.94 5.76,3.71 7.71,4.36 0.68,0.26 1.11,0.51 1.39,0.82 0.35,0.2 0.58,0.59 0.58,1.05 0,0.7 -0.58,1.3 -1.32,1.3 0,0 -0.04,-0.02 -0.08,-0.02 -0.61,0.06 -1.29,-0.14 -1.86,-0.33 l -16.58,-6.14 -14.8,-4.58 c -0.55,-0.17 -0.96,-0.35 -1.25,-0.53 -0.55,-0.18 -0.94,-0.65 -0.94,-1.22 0,-0.43 0.19,-0.77 0.51,-1.01 0.48,-0.52 1.25,-0.52 2.22,-0.43 1.33,0.19 2.23,-0.47 2.81,-2.06 0.12,-0.37 0.18,-0.8 0.18,-1.3 0,-2.42 -1.54,-6.19 -3.3,-10.74 l -0.39,-0.96 c -1.49,-3.77 -6.95,-15.52 -11.84,-25.84 0,0 -7.22,-15.7 -7.26,-15.73 0,0.03 -0.24,-0.05 -0.43,-0.12 -0.12,0.29 -2.29,6.69 -2.29,6.69 -7.283,21.33 -8.572,25.17 -9.841,29.79 -0.489,1.84 -0.782,3.32 -0.782,4.59 0,2.43 1.036,3.91 3.184,5.15 l 3.829,1.76 c 0.43,0.16 1.41,0.52 1.64,1.32 v 0 c 0.04,0.11 0.12,0.21 0.12,0.36 0,0.01 -0.02,0.05 -0.02,0.08 0,0 0.02,0 0.02,0.02 0,0.47 -0.26,0.82 -0.61,1.04 -0.06,0.05 -0.1,0.09 -0.1,0.09 -0.56,0.28 -1.46,0.18 -3.02,-0.35 l -10.023,-3.67 -7.07,-2.64 -6.446,-2.02 -13.75,-4.36 c -2.011,-0.73 -3.183,-1.39 -2.793,-2.59 0.45,-1.27 1.817,-0.99 3.106,-0.59 1.875,0.66 4.414,1.38 5.683,1.49 5.098,0.59 6.895,-1.43 8.711,-5.92 1.856,-4.44 3.145,-8.28 10.41,-29.62 l 8.809,-25.63 c 4.413,-13.09 8.283,-24.4 9.593,-30.65 0.82,-4.05 1.25,-7.53 -1.35,-9.04 l -4.94,-2.34 c -1.096,-0.37 -1.799,-0.84 -1.916,-1.45 -0.156,-0.94 0.625,-1.5 0.625,-1.5 0.661,-0.48 1.521,-0.2 2.871,0.25 l 11.17,4.09 6.66,2.49 6.53,2.06 14.14,4.51 c 1.87,0.62 2.69,1.55 2.34,2.57 -0.63,1.31 -2.44,0.61 -2.44,0.61 z m 125.58,72.66 c -0.03,-0.14 -0.23,-0.21 -0.48,-0.25 l -27.58,-3.17 c -0.18,-0.03 -0.31,0 -0.41,0.1 -0.12,0.11 -0.16,0.35 -0.12,0.68 l 9.55,38.4 c 0.08,0.76 0.31,1.29 0.57,1.31 0.29,0.04 0.51,-0.55 0.68,-1.02 0.04,-0.14 17.77,-35.58 17.77,-35.58 0.06,-0.1 0.12,-0.31 0.02,-0.47"
         style="fill:#820655;fill-opacity:1;fill-rule:nonzero;stroke:none"
         id="path3830"
         inkscape:connector-curvature="0" /><path
         d="m 1208.06,1345.36 c -42.85,1.3 -63.38,-28.77 -64.27,-57.33 -0.88,-28.49 17.16,-59.8 59.04,-61.11 18.1,-0.63 33.9,4.94 45.64,15.94 11.62,10.97 18.3,26.54 18.89,44.02 1.07,34.82 -21.64,57.25 -59.3,58.48 z m 1.35,-110.81 c -11.8,0.38 -22.13,4.95 -29.86,13.19 -9.89,10.55 -15,26.35 -14.46,44.3 0.55,16.99 4.96,29.45 13.17,37.24 8.04,7.52 18.16,8.83 25.19,8.61 11,-0.33 20.78,-4.74 28.28,-12.75 9.57,-10.18 14.57,-25.51 13.99,-43.12 -1.37,-43.79 -25.86,-47.76 -36.31,-47.47"
         style="fill:#820655;fill-opacity:1;fill-rule:nonzero;stroke:none"
         id="path3832"
         inkscape:connector-curvature="0" /><path
         d="m 1415.25,1256.43 c -0.23,-0.49 -0.84,-0.78 -2.01,-1.05 l -17.99,-4.15 -6.56,-1.44 -6.88,-1.9 -18.02,-4.88 c -1.55,-0.27 -2.6,-0.27 -2.9,0.9 -0.27,1.13 0.26,1.8 0.94,1.95 1.6,0.39 8.77,2.72 11.41,4.03 4.12,2.03 4.59,4.14 3.89,8.96 -1.06,6.53 -4.09,18.85 -7.58,33.09 l -5.78,23.22 v 0 c 0,0 -4.91,19.18 -4.91,19.24 -0.88,3.46 -1.27,5.02 -3.3,4.53 -1.93,-0.51 -7.46,-4.98 -11.44,-8.24 l -3.71,-2.93 c -2.66,-1.86 -3.62,0.37 -3.62,0.37 -0.27,1.15 0.63,2.13 1.02,2.6 0.57,0.41 23.83,25.68 28.18,30.88 1.1,1.28 2.31,2.61 3.48,2.85 0.78,0.19 1.89,-0.14 2.58,-2.78 l 0.39,-1.89 c 1.01,-4.92 3.75,-18.01 8.3,-36.37 l 6.7,-27.09 c 3.36,-13.53 6.56,-26.42 8.75,-32.75 1.58,-4.53 2.77,-6.49 7.63,-6.29 2.25,0.08 8.62,1.17 9.83,1.48 0,0 2.77,0.24 1.6,-2.34"
         style="fill:#820655;fill-opacity:1;fill-rule:nonzero;stroke:none"
         id="path3834"
         inkscape:connector-curvature="0" /><path
         d="m 1500.13,1322.07 c -7.3,17.74 -27.36,19.79 -38.24,20.86 0.65,0.63 1.33,1.33 1.97,2.11 4.83,5.04 13.83,17.6 7.85,32.01 -2.28,5.57 -5.99,9.44 -11.11,11.53 -7.09,2.97 -16.5,2.3 -26.46,-1.88 -18.46,-7.5 -24.42,-20.15 -24.42,-30.29 0,-3.26 0.65,-6.29 1.66,-8.79 4.26,-10.25 14.05,-15.76 30.76,-17.24 -2.09,-2 -4.04,-4.22 -5.84,-6.61 -6.01,-7.63 -9.19,-15.74 -9.19,-23.67 0,-3.94 0.74,-7.77 2.26,-11.4 2.91,-7 7.93,-12.19 14.49,-14.87 8.77,-3.71 20.12,-3.06 32.02,1.9 24.35,10.06 30.62,30.99 24.25,46.34 z m -38.28,20.79 c 1.68,-0.2 3.67,-0.45 5.8,-0.75 -2.11,0.28 -4.12,0.47 -5.92,0.65 0.04,0.02 0.04,0.08 0.12,0.1 z m -36.03,11.91 c 0.21,-0.27 0.41,-0.53 0.6,-0.8 -0.51,0.8 -0.96,1.66 -1.37,2.6 -0.95,2.4 -1.46,4.96 -1.46,7.34 0,2.19 0.41,4.34 1.23,6.25 1.74,4.24 5.23,7.46 10.39,9.67 8.89,3.69 17.93,-0.51 21.95,-10.2 5.41,-13.14 -0.74,-22.44 -4.84,-26.79 -10.62,1.32 -17.42,3.36 -21.84,6.7 1.53,-1.24 3.38,-2.29 5.41,-3.17 -4.7,1.9 -8,4.51 -10.07,8.4 z m 16.38,-24.32 c -1.64,0.2 -3.2,0.39 -4.74,0.63 1.56,-0.24 3.18,-0.35 4.82,-0.55 -0.02,0 -0.04,-0.08 -0.08,-0.08 z m 32,-47.5 c -11.31,-4.66 -24.07,1.14 -29.09,13.19 -6.31,15.25 0.57,27.63 5.26,33.67 14.8,-2.09 28.98,-4.1 34.68,-17.95 5.02,-12.07 0.43,-24.3 -10.85,-28.91"
         style="fill:#820655;fill-opacity:1;fill-rule:nonzero;stroke:none"
         id="path3836"
         inkscape:connector-curvature="0" /><path
         d="m 1589.57,1335.77 -16.04,-9.26 -5.74,-3.38 -6.11,-3.85 -15.77,-9.84 c -1.34,-0.78 -2.32,-1.1 -2.96,-0.02 -0.59,0.97 -0.28,1.81 0.33,2.19 1.38,0.84 7.54,5.03 9.72,7.05 3.3,3.18 3.15,5.33 1.02,9.82 -2.99,6.04 -9.77,17.31 -17.01,29.34 l -12.38,20.47 -6.51,10.56 -3.85,6.25 c -1.27,2.09 -2.11,3.52 -3.08,3.79 l -1.41,-0.37 c -1.72,-1.04 -5.58,-6.78 -8.42,-11.04 0,0 -2.77,-4.08 -2.85,-4.16 0,0 -1.81,-2.71 -3.46,-0.64 -0.62,1.02 -0.07,2.21 0.2,2.71 0.39,0.65 15.18,31.72 17.79,37.84 0,0 1.62,4.33 3.58,4.02 0.68,-0.18 1.38,-0.88 2.13,-2.11 l 1.05,-1.85 18.56,-32.13 14.43,-23.87 c 7.23,-11.93 14.06,-23.3 18.05,-28.69 2.81,-3.77 4.53,-5.33 9.18,-3.77 2.18,0.78 7.93,3.75 8.92,4.35 0.57,0.36 1.47,0.24 2.05,-0.76 0,0 1.08,-1.48 -1.42,-2.65"
         style="fill:#820655;fill-opacity:1;fill-rule:nonzero;stroke:none"
         id="path3838"
         inkscape:connector-curvature="0" /><path
         d="m 1643.51,1450.82 c -5.96,7.15 -21.85,23.89 -40.78,25.59 -9.34,0.82 -18.22,-2.13 -26.31,-8.85 -21.01,-17.61 -18.44,-45.19 7.05,-75.66 17.37,-20.82 44.12,-36.1 67.17,-16.9 8.24,7 12.89,15.47 13.75,25.38 1.35,15.11 -5.86,32.55 -20.88,50.44 z m 4.77,-68.39 c -14.26,-11.98 -38.19,6.34 -54.3,25.64 -14.04,16.8 -21.29,31.72 -20.35,41.99 0.37,4.2 2.05,7.52 4.98,10 3.44,2.91 7.66,4.1 12.56,3.67 13.96,-1.25 30.84,-15.91 41.97,-29.16 19.96,-23.96 25.59,-43.45 15.14,-52.14"
         style="fill:#820655;fill-opacity:1;fill-rule:nonzero;stroke:none"
         id="path3840"
         inkscape:connector-curvature="0" /><path
         d="m 655.094,2091.84 c -8.633,13.37 -22.813,22.73 -39.883,26.46 -15.898,3.4 -30.508,1.18 -42.266,-6.42 -12.871,-8.28 -21.836,-22.64 -25.859,-41.43 -9.063,-41.94 16.875,-67.5 44.805,-73.51 27.89,-6.02 61.972,6.18 70.781,47.09 3.828,17.72 1.211,34.23 -7.578,47.81 z m 1.172,-39.93 c -5.684,-26.54 -32.207,-40.25 -64.493,-33.33 -39.98,8.62 -41.093,32.53 -38.203,46.01 5.469,25.3 31.211,38.27 62.598,31.52 42.793,-9.2 42.285,-33.98 40.098,-44.2"
         style="fill:#820655;fill-opacity:1;fill-rule:nonzero;stroke:none"
         id="path3842"
         inkscape:connector-curvature="0" /><path
         d="m 586.637,2182.95 c 0.566,0.19 0.996,0.78 1.543,1.92 l 2.5,4.24 c 3.105,4.13 5.82,3.99 10.351,2.18 4.492,-1.77 8.262,-3.5 29.024,-13.27 l 24.062,-11.26 c 12.539,-5.84 23.36,-10.92 28.731,-14.3 3.476,-2.24 6.308,-4.33 5.605,-7.26 0,-0.02 -1.797,-5.15 -1.797,-5.15 -0.488,-1.07 -0.625,-1.79 -0.429,-2.31 0,0 0.449,-1.18 1.699,-0.69 0.605,0.23 1.191,0.97 1.816,2.25 l 4.102,9.56 2.363,5.28 1.172,2.54 10.488,21.05 8.946,18.27 c 3.281,7.09 3.007,8.25 0.273,10.55 -3.438,2.99 -13.164,8.71 -14.766,9.46 -1.543,0.69 -2.539,1.04 -3.086,-0.11 -0.605,-1.27 0.352,-2.02 1.446,-2.64 2.461,-1.55 5.449,-4.94 6.406,-7.35 2.012,-4.9 -0.039,-9.93 -3.594,-17.61 -5.176,-10.98 -7.754,-13.73 -10.683,-15.02 -3.731,-1.68 -13.223,2.76 -30.489,10.86 l -24.648,11.53 c -20.371,9.55 -24.063,11.26 -28.242,13.57 -4.981,2.65 -6.309,4.82 -5.352,8.46 l 2.07,5.55 c 0.743,1.54 1.016,2.72 -0.156,3.26 -1.172,0.54 -1.953,-0.59 -2.812,-2.4 l -5,-11.34 -3.242,-7.42 -3.399,-6.78 -5.82,-11.71 c -0.723,-1.61 -0.938,-2.54 -0.723,-3.13 0,0 0.41,-1.14 1.641,-0.78"
         style="fill:#820655;fill-opacity:1;fill-rule:nonzero;stroke:none"
         id="path3844"
         inkscape:connector-curvature="0" /><path
         d="m 918.336,2516.97 c 0.195,0.79 -0.234,2.04 -1.484,4.11 l -7.539,13.78 -1.153,2.12 c -0.683,1.12 -1.797,0.93 -2.91,0.56 -4.727,-1.31 -10.625,-3.28 -18.633,-7.95 -9.707,-5.76 -16.289,-13.71 -18.535,-22.38 -1.777,-6.9 -0.762,-13.85 2.969,-20.16 6.64,-11.21 17.519,-16.89 37.48,-19.51 l 8.75,-1.12 c 15.293,-1.9 20.977,-6.67 24.864,-13.18 4.16,-7.14 2.578,-18.24 -8.614,-24.86 -5.429,-3.2 -16.054,-7.18 -26.093,2.15 -2.071,1.95 -4.102,4.33 -5.059,5.91 -0.41,0.73 -1.348,2.33 -2.793,1.51 -1.367,-0.78 -0.449,-2.99 0.332,-4.56 l 0.332,-0.62 9.063,-16.79 c 1.679,-2.89 2.539,-3.36 5.253,-3.01 6.758,0.78 13.028,3.14 20.997,7.81 8.359,4.92 14.082,10.66 17.578,17.6 2.461,5 3.398,9.67 3.398,13.93 0,6.95 -2.5,12.62 -4.531,16.01 -7.266,12.31 -17.988,17.7 -40.977,20.66 l -5.234,0.59 c -15,1.73 -21.016,4.26 -24.688,10.45 -1.484,2.58 -2.207,5.16 -2.207,7.75 0,5.48 3.399,10.8 9.766,14.51 8.066,4.76 13.965,3.41 17.715,1.97 4.687,-1.77 7.695,-5.33 8.359,-6.49 0.664,-1.06 1.231,-1.66 1.836,-1.8 0,0 1.25,-0.25 1.758,1.01"
         style="fill:#820655;fill-opacity:1;fill-rule:nonzero;stroke:none"
         id="path3846"
         inkscape:connector-curvature="0" /><path
         d="m 1350.56,2489.51 c -0.7,-0.51 -1.87,-0.43 -2.73,-0.3 l -16.27,3.06 -6.86,1.29 -6.99,0.96 -11.83,1.71 c -2.11,0.34 -3.05,1.07 -2.86,2.18 0.2,1.2 1.66,1.09 2.78,0.91 l 5.41,-0.28 c 3.02,0.07 4.27,2.49 5.43,6.59 1.74,6.09 3.67,17.64 6.11,32.26 l 4.55,27.11 c 3.65,21.96 4.32,25.89 4.81,30.68 0.52,5.03 -0.51,7.7 -3.54,8.95 -1.72,0.78 -3.79,1.23 -5.23,1.47 -1.27,0.22 -2.52,0.63 -2.27,2.11 0.18,1.14 1.7,1.12 3.98,0.76 l 10.94,-2.12 8.32,-1.58 7.17,-1.04 11.02,-1.58 c 1.62,-0.26 2.54,-0.61 2.91,-1.14 l 0.17,-0.73 c -0.25,-1.46 -1.52,-1.46 -2.83,-1.24 l -4.51,0.29 c -3.77,-0.06 -5.49,-1.94 -6.76,-7.44 -1.07,-4.75 -1.85,-9.31 -5.55,-31.44 l -4.37,-26.18 c -2.35,-14 -4.38,-26.04 -4.86,-32.63 -0.24,-4.18 0.46,-6.86 4.62,-8.11 l 7.45,-1.85 c 1.09,-0.18 1.83,-0.52 2.14,-0.97 0,0 0.38,-1.19 -0.35,-1.7"
         style="fill:#820655;fill-opacity:1;fill-rule:nonzero;stroke:none"
         id="path3848"
         inkscape:connector-curvature="0" /><path
         d="m 1626.58,2454.38 c 1.29,-0.87 2.58,0.43 4.18,2.8 l 9.29,12.63 1.51,1.9 c 0.72,1.11 0.08,2.06 -0.72,2.95 -2.97,3.5 -7.39,8.22 -15.08,13.5 -9.28,6.41 -19.26,9.07 -28.07,7.44 -6.97,-1.28 -12.91,-5.11 -17.01,-11.15 -7.44,-10.75 -8.01,-22.98 -1.95,-42.21 l 2.63,-8.44 c 4.67,-14.66 2.76,-21.81 -1.52,-28.08 -4.71,-6.77 -15.45,-10 -26.13,-2.61 -5.24,3.55 -13.3,11.54 -9.05,24.57 0.9,2.73 2.19,5.56 3.21,7.02 0.47,0.71 1.56,2.3 0.19,3.25 -1.29,0.86 -2.85,-0.82 -3.94,-2.23 l -11.88,-15.85 c -1.05,-1.55 -1.52,-2.51 -1.52,-3.44 0,-0.78 0.31,-1.55 0.98,-2.61 3.53,-5.81 8.34,-10.52 15.93,-15.78 7.97,-5.49 15.61,-8.29 23.32,-8.53 14.81,-0.37 23.13,8.37 26.74,13.62 8.11,11.75 8.54,23.77 1.51,45.84 l -1.7,5.02 c -4.69,14.33 -4.91,20.87 -0.84,26.76 5.31,7.66 14.45,8.69 23.36,2.55 7.73,-5.35 8.98,-11.3 9.21,-15.29 0.4,-4.99 -1.64,-9.22 -2.38,-10.31 0,0 -1.85,-2.53 -0.27,-3.32"
         style="fill:#820655;fill-opacity:1;fill-rule:nonzero;stroke:none"
         id="path3850"
         inkscape:connector-curvature="0" /><path
         d="m 1624.1,2339.43 c 0.9,0.88 2.01,-0.1 2.79,-0.89 l 4.26,-3.43 c 2.52,-1.75 5.7,0.22 8.71,2.61 5.04,3.84 13.44,12.08 23.26,21.62 0,0 44.16,42.99 44.42,43.25 -0.26,0.25 -15.96,15.54 -15.96,15.54 -6.02,5.79 -9.22,8.12 -13.2,7.39 -2.97,-0.56 -4.73,-1.39 -5.47,-1.82 0,0 -2.56,-1.31 -3.11,0.93 0,0.51 0.35,1.1 1.21,1.96 1.78,1.68 13.52,9.15 14.67,9.83 1.62,1 2.75,1.45 3.53,0.71 l 0.81,-1.65 c 0.41,-1.1 0.95,-2.55 2.42,-4.32 2.75,-3.48 6.56,-7.8 9.96,-11.3 l 41.66,-42.79 c 0,0 7.67,-6.8 7.77,-6.87 l 1.35,-0.95 2.07,-1.5 c 0.92,-0.92 0.04,-1.87 -1.45,-3.34 0,0 -12.83,-11.89 -12.83,-11.91 -1.01,-0.76 -2.11,-1.52 -2.95,-0.69 -0.35,0.37 -0.48,0.69 -0.48,1.07 0,0.67 0.54,1.44 1.5,2.5 l 1.05,1.28 c 0.8,0.88 1.53,2.21 1.53,4.22 0,3.03 -1.76,7.58 -7.87,14.16 0,0 -12.68,13.67 -12.68,13.94 v 0 c -0.02,-0.04 -44.3,-43.14 -44.3,-43.14 -9.9,-9.65 -18.39,-17.96 -22.57,-23.03 -1.61,-1.95 -3.05,-3.91 -3.05,-6.08 0,-1.14 0.39,-2.35 1.35,-3.59 l 4.92,-5.89 c 0.88,-0.91 1.15,-1.56 1.15,-2.07 0,-0.33 -0.16,-0.59 -0.35,-0.79 -0.76,-0.74 -1.97,-0.37 -3.34,1 l -11.43,12.19 -4.76,5.1 -4.96,4.86 -8.6,8.44 c 0,0 -2.38,2.38 -1.03,3.45"
         style="fill:#820655;fill-opacity:1;fill-rule:nonzero;stroke:none"
         id="path3852"
         inkscape:connector-curvature="0" /><path
         d="m 1783.61,2324.36 c 1.02,0.64 2.17,-0.72 3.26,-2.37 l 6.09,-9.43 4.56,-7.05 4.21,-5.99 6.45,-8.99 c 0.88,-1.3 1.72,-2.92 0.74,-3.58 -1.25,-0.8 -2.15,0.14 -2.85,1.2 l -2.87,3.51 c -2.72,2.69 -5.25,2.65 -10.04,-0.22 -4.12,-2.4 -7.36,-4.63 -25.37,-16.81 l -23.28,-15.72 c -12.27,-8.27 -21.96,-14.85 -26.99,-18.95 -3.17,-2.69 -4.61,-5.04 -2.68,-8.95 l 3.77,-6.67 c 1.17,-1.8 0.82,-2.57 0.27,-2.92 -0.88,-0.6 -1.95,-0.05 -3.08,1.54 l -9.05,13.98 -3.75,5.8 -4.16,5.83 -6.85,9.64 c 0,0 -2.17,2.56 -0.37,3.58 1.01,0.71 1.95,-0.45 2.58,-1.38 l 3.55,-4.12 c 2.15,-2.09 4.71,-1.36 8.46,0.65 5.64,2.87 15.17,9.35 27.26,17.51 l 22.87,15.47 c 18.64,12.6 22.02,14.86 25.79,17.8 4.04,3.07 5.25,5.71 4.06,8.78 -0.47,1.41 -1.37,3.05 -2.5,4.79 0,0 -1.6,2.22 -0.08,3.07"
         style="fill:#820655;fill-opacity:1;fill-rule:nonzero;stroke:none"
         id="path3854"
         inkscape:connector-curvature="0" /><path
         d="m 1746.46,2170.55 c 0,0 2.74,-4.69 2.75,-4.71 1.67,-2.4 4.85,-1.97 9.11,-0.59 6.05,1.88 16.85,6.65 29.64,12.29 0,0 56.1,24.7 56.41,24.84 -0.43,0.92 -9.53,20.14 -9.53,20.14 -3.61,7.54 -5.8,10.78 -9.79,11.51 -3.02,0.54 -4.92,0.37 -5.78,0.22 -0.97,-0.17 -2.05,-0.19 -2.54,0.89 -0.5,1.22 0.36,1.87 1.78,2.48 2.21,0.96 15.76,3.87 17.17,4.12 1.91,0.33 3.12,0.37 3.52,-0.62 l 0.23,-1.78 c 0,-1.14 0,-2.72 0.72,-4.93 1.43,-4.26 3.48,-9.64 5.45,-14.04 l 24.06,-54.65 c 0,0 4.85,-9.09 4.89,-9.14 l 0.91,-1.33 1.41,-2.17 0.06,-0.9 c -0.22,-0.62 -1,-1.02 -2.54,-1.7 0,0 -16.17,-6.63 -16.19,-6.64 -1.19,-0.38 -2.48,-0.71 -2.95,0.38 -0.16,0.26 -0.23,0.51 -0.23,0.74 0,0.83 0.84,1.39 2.36,2.21 l 1.48,0.8 c 1.55,0.84 3.5,2.79 3.5,7.23 0,2.93 -0.82,6.84 -3.03,12.21 0,0 -7.05,17.04 -7.05,17.48 v 0 0 c -0.08,-0.02 -56.54,-24.93 -56.54,-24.93 -12.6,-5.57 -23.54,-10.37 -29.16,-13.71 -2.85,-1.6 -5.35,-3.34 -5.35,-6.45 0,-0.6 0.07,-1.29 0.31,-2 l 2.56,-7.27 c 0,0 1.15,-3.32 -1.27,-2.95 -0.8,0.31 -1.39,1.33 -1.74,2.16 l -6.35,15.17 -2.77,6.61 -3.05,6.51 -5.04,10.7 c -0.58,1.33 -1.05,2.45 -0.47,2.91 0,0 1.72,1.72 3.05,-1.09"
         style="fill:#820655;fill-opacity:1;fill-rule:nonzero;stroke:none"
         id="path3856"
         inkscape:connector-curvature="0" /><path
         d="m 1897.89,2058.29 c 1.58,0.19 1.29,1.6 0.86,3.72 l -2.29,10.92 -1.52,7.27 -1.31,7.99 -2.23,13.69 c -0.41,2.15 -0.92,3.41 -2.15,3.19 -1.34,-0.27 -1.27,-1.59 -0.99,-3 0.35,-1.94 0.66,-4.55 0.58,-5.8 -0.11,-5.13 -2.38,-6.64 -7.11,-7.82 -4.66,-1.14 -8.55,-1.87 -30.35,-5.87 l -22.65,-4.2 c -18.77,-3.45 -30.51,-9.98 -36.98,-20.53 -8.18,-13.24 -5.39,-28.43 -4.18,-34.92 1.59,-8.6 4.95,-19.65 16.45,-28.99 12.93,-10.47 30.41,-8.98 47.36,-5.84 l 16.45,3 c 22.15,4.1 26.11,4.8 30.88,5.41 5.56,0.72 7.87,-0.28 9.24,-3.82 l 1.26,-4.17 c 0.26,-1.33 0.57,-2.05 1.06,-2.39 0,0 1.11,-0.53 1.8,0.33 0.37,0.52 0.39,1.43 0.09,3.07 l -2.67,12.61 -0.9,4.16 c -0.06,0.33 -2.71,17.17 -2.71,17.17 -0.4,1.99 -0.9,3.23 -2.13,3 -1.31,-0.22 -1.27,-1.54 -1.02,-2.96 l 0.55,-5.4 c -0.12,-5.12 -2.4,-6.59 -7.13,-7.77 -4.67,-1.18 -8.6,-1.89 -31.37,-6.08 l -18.51,-3.44 c -15.92,-2.89 -28.85,-4.67 -38.25,1.8 -8.51,5.83 -11.01,15.14 -11.72,18.84 -0.93,5.18 -1.48,12.03 2.66,19.58 5.18,9.37 15.08,14.66 34.22,18.18 l 21.68,3.99 c 21.87,4.07 25.82,4.79 30.57,5.38 5.54,0.67 7.87,-0.27 9.21,-3.83 l 1.27,-4.2 c 0,0 0.75,-2.65 1.98,-2.27"
         style="fill:#820655;fill-opacity:1;fill-rule:nonzero;stroke:none"
         id="path3858"
         inkscape:connector-curvature="0" /><path
         d="m 1895.95,1935.84 c 0.86,-0.28 2.66,-0.95 5.12,-2.76 2.99,-2.26 3.61,-5.76 3.61,-12.89 0,-0.55 0,-1.16 0,-1.77 0,0 -0.43,-21.29 -0.45,-22.29 -0.33,0.03 -62.03,2.86 -62.03,2.86 -13.59,0.65 -25.33,1.2 -31.54,2.22 -4.45,0.67 -7.46,1.72 -7.89,4.63 l -0.37,5.41 c 0,0.14 0.02,0.29 0,0.45 -0.16,2.85 -2.27,1.83 -2.27,1.83 -0.5,-0.44 -0.78,-1.35 -0.82,-2.75 l -0.31,-11.84 -0.16,-7.14 -0.46,-7.17 -1.1,-16.44 c -0.04,-1.25 0.16,-2.21 0.63,-2.71 0,0 0.88,-0.74 1.72,-0.12 0.42,0.36 0.66,1.12 0.7,2.21 l 0.96,7.61 c 0.87,4.6 4.39,5.14 8.3,5.39 6.5,0.43 18.39,-0.14 32.18,-0.73 0,0 61.7,-2.93 61.76,-2.93 v 0 c -0.19,-0.1 -1.48,-18.75 -1.48,-18.75 -1.04,-14.78 -6.14,-17.09 -9.1,-17.2 l -1.65,-0.08 c -2.22,-0.02 -3.2,-0.31 -3.28,-1.68 v -0.06 c 0,-1.15 1.29,-1.41 2.48,-1.62 0.02,0 17.48,-1.25 17.48,-1.25 1.68,-0.07 2.6,-0.04 3.07,0.39 l 0.35,0.82 -0.31,2.48 -0.25,1.7 c -0.04,0.3 -0.28,10.38 -0.28,10.38 l 2.8,59.62 c 0.21,4.86 0.76,10.64 1.42,15.02 0.27,2.24 1.02,3.69 1.51,4.74 l 0.58,1.68 c 0.1,1.1 -0.99,1.57 -2.87,2.09 -1.39,0.42 -14.79,3.86 -17.19,3.97 -1.21,0.08 -1.91,-0.05 -2.32,-0.41 0,0 -1.43,-1.89 1.46,-2.91"
         style="fill:#820655;fill-opacity:1;fill-rule:nonzero;stroke:none"
         id="path3860"
         inkscape:connector-curvature="0" /><path
         d="m 1789.74,1811.45 c 0.31,-0.47 0.31,-1.2 0,-2.33 l -0.7,-5.37 c -0.16,-3.02 3.01,-4.55 6.87,-6.13 5.82,-2.26 17.15,-5.14 30.32,-8.46 l 26.29,-6.7 0.93,-0.25 c 21.59,-5.45 25.43,-6.44 30.14,-7.28 4.75,-0.96 7.44,-0.55 9.71,4.04 0.58,1.11 1.38,3.63 1.89,5.53 0.31,1.21 0.65,1.91 1.15,2.16 0,0 0.86,0.45 1.78,-0.41 0.33,-0.56 0.29,-1.5 -0.16,-3.22 l -3.16,-11.82 -0.27,-0.91 -2.33,-8.21 -0.47,-1.73 c -2.03,-7.97 -8.16,-32.25 -8.67,-34.75 l -0.74,-6.52 0.04,-0.96 -0.04,-1.64 c -0.23,-1.06 -1.37,-0.74 -1.76,-0.67 l -1.36,0.57 -7.84,3.07 -2.89,0.9 -6.58,2.22 c -0.49,0.26 -1.58,0.84 -1.37,1.99 0,0 0,0.08 0.02,0.18 0,0 0.14,1.09 1.68,0.9 v 0 c 0.47,0 0.92,0 0.92,0 1.15,-0.26 3.56,-0.67 5.41,-0.39 2.7,0.29 4.83,1.07 7.62,8.28 0.9,2.48 5.12,17.79 5.84,20.59 l -0.04,0.6 -1.06,0.55 -36.93,9.37 -1.31,0.04 c 0,0 -0.35,-0.51 -0.35,-0.58 -3.28,-12.82 -5.27,-21.18 -5.64,-23.34 -0.61,-3.62 -0.73,-5.79 0.52,-7.7 0.86,-1.21 1.37,-1.97 1.18,-2.69 -0.12,-0.49 -0.47,-1.18 -1.63,-0.84 l -1.27,0.48 c 0,0 -9.1,3.34 -9.14,3.34 0,0 -9.63,3.07 -9.66,3.07 -1.16,0.31 -2.89,0.72 -2.54,2.25 0,0 0.5,1.36 1.83,1.11 l 1.41,-0.25 4.02,-0.47 c 3.54,-0.04 5.88,2.01 7.6,6.56 1.02,2.75 4.9,17.54 5.7,20.62 l -0.02,0.49 -1.07,0.55 -11.56,2.97 -6.06,1.56 -16.6,4.18 c -9.73,2.19 -12.64,1.04 -16.48,-14.3 -0.94,-3.67 -2.5,-9.82 -1.76,-14.14 0.78,-4.08 3.2,-6.56 9.02,-9.16 0,0 3.38,-1.48 1.37,-3.1 -0.59,-0.37 -1.56,-0.14 -2.62,0.13 -3.4,0.88 -12.97,4.57 -15.78,6.04 -3.65,2.01 -3.28,3.49 -1.84,9.04 l 5.55,20.65 1.31,4.53 4.28,15.08 1.95,8.36 2.27,10.13 c 0.35,1.4 0.82,2.25 1.38,2.57 0,0 1.08,0.48 1.7,-0.38"
         style="fill:#820655;fill-opacity:1;fill-rule:nonzero;stroke:none"
         id="path3862"
         inkscape:connector-curvature="0" /><path
         d="m 1845.46,1673.5 c 0.51,0.16 1.2,0.04 2.25,-0.47 2.17,-1.09 13.17,-9.61 14.26,-10.49 1.52,-1.25 2.28,-2.16 1.83,-3.14 l -1.25,-1.31 c -0.87,-0.76 -2.07,-1.74 -3.22,-3.69 -2.4,-3.87 -5.21,-8.95 -7.28,-13.28 l -26.1,-53.66 c 0,0 -3.82,-9.6 -3.86,-9.64 l -0.39,-1.59 c 0,0 -0.71,-2.42 -0.71,-2.46 -0.54,-1.13 -1.76,-0.68 -3.61,0.24 0,0 -15.57,7.97 -15.57,8.01 -1.05,0.66 -2.15,1.44 -1.64,2.53 0.61,1.25 1.6,1.06 3.71,0.26 l 1.55,-0.63 c 2.71,-1.07 8.36,-0.93 15.17,12.33 0,0 8.52,16.5 8.75,16.54 v 0 c -0.08,0.06 -55.62,27.05 -55.7,27.09 -12.4,6.07 -23.07,11.33 -29.22,13.44 -3.63,1.31 -7.15,2.17 -9.73,-1.64 l -3.9,-6.68 c -0.9,-1.94 -1.76,-2.03 -2.31,-1.74 -1.6,0.9 -0.19,3.5 -0.19,3.5 l 7.46,14.76 3.3,6.27 2.87,6.47 5,10.87 c 0.61,1.27 1.21,1.98 1.87,2.21 0,0 0.96,0.14 1.66,-0.72 0.04,-0.16 0.08,-0.29 0.08,-0.45 0,-0.49 -0.17,-1.07 -0.56,-1.84 l -1.84,-5.07 c -0.1,-0.36 -0.12,-0.73 -0.12,-1.06 0,-2.3 2.27,-4.26 5.61,-6.29 5.39,-3.57 16.13,-8.75 28.53,-14.78 0,0 55.08,-26.74 55.39,-26.9 0.16,0.3 9.24,20.28 9.24,20.28 2.21,5.02 3.46,8.37 3.46,11.09 0,1.39 -0.33,2.58 -1,3.81 -1.54,2.63 -2.93,3.98 -3.59,4.47 -0.55,0.53 -1.11,1.13 -1.11,1.91 0,0 -0.12,1.06 0.91,1.45"
         style="fill:#820655;fill-opacity:1;fill-rule:nonzero;stroke:none"
         id="path3864"
         inkscape:connector-curvature="0" /><path
         d="m 787.555,2305.38 c 0.781,-0.02 1.562,0.58 2.715,1.66 l 9.746,9.75 1.757,1.81 3.165,2.8 10.703,9.7 c 1.367,1.35 2.5,2.69 1.484,3.75 -0.859,0.86 -1.953,0.04 -2.969,-0.87 -1.582,-1.53 -3.769,-3.48 -6.328,-4.61 -3.242,-1.48 -7.773,1.08 -15.156,8.46 l -44.805,44.82 c 0.215,0.04 5.039,-0.33 5.039,-0.33 9.414,-0.72 28.946,-2.16 47.344,-2.57 l 28.223,-0.74 34.55,-0.81 c 2.364,-0.06 4.688,0 5.997,1.08 0.039,0.03 0.078,0.05 0.117,0.1 h 0.019 v 0.03 c 0.352,0.23 0.547,0.66 0.547,1.19 0,0.22 -0.039,0.44 -0.117,0.63 -0.273,0.84 -0.977,1.89 -2.207,3.17 l -64.258,70.15 c -5.762,6.27 -6.875,9.33 -4.746,12.91 l 2.93,3.4 c 1.406,1.33 1.738,2.38 1.035,3.09 -0.957,1.09 -2.363,-0.12 -3.672,-1.38 l -8.516,-8.53 -1.914,-1.99 -3.965,-3.54 -9.57,-8.64 c -1.367,-1.31 -2.226,-2.29 -2.265,-3.13 l 0.351,-0.81 0.899,-0.47 c 0.546,-0.01 1.21,0.33 1.992,1.11 1.562,1.48 4.14,3.93 6.406,4.84 3.75,1.43 6.738,-0.05 12.871,-6.31 l 47.559,-48.01 0.332,-0.35 -0.918,0.05 -0.586,0.05 v 0 c -2.989,0.16 -14.571,0.7 -14.571,0.7 l -32.265,1.41 c -32.442,0.75 -66.875,2.91 -67.227,2.94 l -2.109,0.12 c -2.617,0.21 -4.258,0.33 -5.293,-0.61 -1.387,-1.3 0.527,-3.66 2.09,-5.33 l 60.449,-65.66 c 8.887,-9.63 11.367,-13.17 9.434,-16.59 -1.172,-2.04 -3.243,-4.12 -4.336,-5.15 -0.879,-0.81 -1.25,-1.42 -1.289,-1.97 0,0 0.175,-1.42 1.328,-1.32"
         style="fill:#820655;fill-opacity:1;fill-rule:nonzero;stroke:none"
         id="path3866"
         inkscape:connector-curvature="0" /><path
         d="m 766.148,2277.48 c -0.507,0.36 -1.406,0.41 -2.578,-1.39 l -4.824,-5.96 c -2.949,-3.19 -5.644,-2.68 -9.336,-0.73 -5.644,3.16 -15.293,9.81 -27.519,18.19 l -21.836,15.09 c -18.926,13.03 -22.305,15.4 -26.153,18.37 -4.433,3.44 -5.41,5.78 -3.847,9.27 l 2.168,3.94 c 0.722,1.06 1.308,2.22 0.078,3.06 -1.016,0.72 -2.129,-0.68 -3.028,-1.94 l -5.976,-9.19 -4.102,-6.23 -5,-6.93 -6.445,-8.91 c -0.977,-1.37 -1.406,-2.3 -1.465,-2.94 -0.019,-0.08 -0.039,-0.13 -0.039,-0.19 0,-0.04 0.02,-0.1 0.02,-0.13 0,-0.04 0,-0.04 0,-0.04 l 0.039,-0.02 c 0.078,-0.57 0.586,-1 1.23,-1 0.274,0 0.488,0.09 0.684,0.2 0.547,0.25 0.976,0.77 1.367,1.34 1.172,1.76 2.422,3.15 3.535,4.09 2.402,2.25 5.293,2.07 9.668,-0.56 4.024,-2.42 7.227,-4.65 25.117,-16.96 l 23.184,-15.99 c 11.68,-8.03 21.816,-14.98 26.621,-19.22 3.262,-2.79 4.883,-4.93 3.711,-7.72 l -2.617,-4.73 c -0.645,-0.97 -0.899,-1.67 -0.801,-2.21 0,0 0.156,-0.97 1.504,-0.93 0.703,0.1 1.426,0.74 2.226,1.87 l 6.504,9.97 3.867,5.94 4.161,5.73 9.531,13.37 c 1.172,1.61 1.289,2.88 0.351,3.49"
         style="fill:#820655;fill-opacity:1;fill-rule:nonzero;stroke:none"
         id="path3868"
         inkscape:connector-curvature="0" /><path
         d="m 649.586,1858.41 -0.684,12.27 -0.351,6.05 -0.039,4.65 -0.215,17.56 c -0.098,2.14 -0.645,3.15 -1.817,3.11 -0.878,-0.01 -1.347,-0.78 -1.308,-2.03 l -0.371,-7.35 c -0.41,-4.19 -3.125,-5.35 -7.949,-6.01 -6.329,-0.95 -18.301,-1.32 -32.207,-1.78 l -2.11,-0.07 -0.801,0.21 -0.254,0.78 -0.117,13.12 c -0.019,1.08 0.117,1.9 0.879,2.61 l 9.805,7.57 10.547,8.03 c 11.797,9.17 18.359,15.04 21.523,21.41 2.031,4.12 2.637,8.1 2.363,16.29 l -0.468,14.33 c -0.039,1.19 -0.215,1.96 -0.528,2.41 -0.078,0.09 -0.117,0.14 -0.156,0.21 -0.039,0 -0.039,0.02 -0.039,0.02 v 0.01 c -0.195,0.24 -0.508,0.39 -0.898,0.39 -0.157,0 -0.332,-0.04 -0.469,-0.09 -0.508,-0.14 -1.055,-0.6 -1.016,-1.98 l -0.312,-4.24 c -0.391,-2.46 -1.426,-8.6 -9.649,-17.08 -7.812,-7.97 -18.535,-17.02 -32.109,-28.5 l -6.445,-5.47 c -0.215,0.25 -0.469,0.47 -0.684,0.73 -0.644,0.72 -1.269,1.46 -1.894,2.13 -10.508,11.42 -20.235,16.39 -31.719,16.03 -10.899,-0.37 -18.125,-7.4 -20.469,-11.03 -5.449,-8.56 -5.898,-19 -5.586,-28.02 l 1.094,-21.26 0.078,-6 0.156,-14.63 c 0.059,-2.16 0.352,-3.52 1.621,-3.5 1.367,0.08 1.504,1.4 1.465,2.85 -0.078,1.94 0,4.58 0.254,5.81 0.898,5.08 3.379,6.21 8.242,6.64 4.785,0.47 8.926,0.59 31.758,1.34 l 26.699,0.86 c 13.75,0.41 25.703,0.78 32.11,0.26 4.101,-0.45 7.539,-1.05 8.242,-3.99 l 0.762,-5.35 c 0.058,-1.16 0.234,-1.89 0.664,-2.26 v 0 c 0.195,-0.19 0.468,-0.36 0.781,-0.36 0.234,0 0.449,0.12 0.625,0.25 0.723,0.36 1.055,1.34 0.996,3.07 z m -56.895,27.34 c -0.39,-1 -0.918,-1.29 -2.519,-1.34 l -45.781,-1.44 c -1.192,-0.06 -1.68,0.24 -1.973,1.14 -0.449,1.38 -0.723,3.89 -0.84,7.93 -0.176,5.66 2.031,11.52 5.918,15.71 4.727,5.04 11.719,7.76 20.762,8.01 13.906,0.47 20.195,-4.85 22.695,-8.06 1.953,-2.57 2.676,-4.47 2.852,-10.52 0.156,-4.3 -0.274,-8.61 -1.114,-11.43"
         style="fill:#820655;fill-opacity:1;fill-rule:nonzero;stroke:none"
         id="path3870"
         inkscape:connector-curvature="0" /><path
         d="m 682.125,1720.55 -3.906,14.1 -0.899,3.07 -3.496,15.6 c -0.371,1.41 -0.898,2.66 -2.324,2.27 -1.133,-0.31 -1.133,-1.15 -0.742,-2.66 l 0.566,-2.22 c 0.977,-3.95 0.059,-6.08 -2.91,-6.86 -1.641,-0.39 -5.273,-0.6 -9.414,-0.08 l -22.891,2.6 c -0.918,0.08 -1.211,0.2 -1.347,0.9 l -8.301,32.56 c -0.156,0.7 0,1.13 0.605,1.56 l 27.989,19.57 c 0.683,0.55 1.289,0.63 1.777,0.59 0.02,0 0.059,0.04 0.098,0.04 1.054,0 1.386,-0.67 1.992,-2 0.391,-0.66 0.859,-0.99 1.641,-0.82 1.093,0.28 0.761,1.84 0.292,4.22 l -0.117,0.69 -6.738,27.67 c -1.133,4.39 -1.367,6.13 -2.5,6.38 -1.953,0.26 -1.68,-2.32 -1.68,-2.32 l 0.938,-6.23 c 0.058,-3.5 -1.387,-8.34 -12.578,-16.76 l -50.977,-37.34 -29.687,-21.76 c -2.891,-2.18 -4.219,-3.59 -3.828,-5.03 0.429,-1.65 2.48,-2.06 7.07,-2.76 l 101.094,-13.3 c 5.605,-0.74 10.351,-1.62 13.515,-4.84 2.071,-1.74 2.422,-10.96 2.422,-10.96 0.762,-8.13 -1.875,-16.7 -4.473,-24.98 l -0.468,-1.47 c -2.325,-7.67 -17.52,-48.35 -21.446,-56.4 -6.972,2.21 -37.129,12.44 -43.457,14.67 -7.636,2.65 -13.125,5.68 -17.363,9.41 -2.246,2.15 -4.473,5.22 -5.332,7.03 -0.488,0.98 -0.898,1.47 -1.406,1.6 l -1.055,-0.09 -0.684,-0.71 c -0.175,-0.6 -0.019,-1.35 0.528,-2.44 l 8.281,-15.55 6.563,-14.08 c 0.527,-1.07 0.976,-1.62 1.484,-1.76 l 1.016,0.1 c 1.015,0.55 0.859,1.51 0.586,2.62 -0.352,1.31 0.156,2.25 1.64,3.03 2.129,1.07 6.719,-0.04 12.481,-1.49 l 0.879,-0.19 c 3.906,-0.96 16.171,-4.79 26.992,-8.15 0,0 16.718,-5.13 16.758,-5.13 v 0 c 0,-0.04 0.078,-0.26 0.156,-0.4 -0.313,-0.15 -7.676,-3.98 -7.676,-3.98 -18.633,-9.26 -22.52,-11.19 -26.816,-13.01 -5.157,-2.24 -7.657,-1.97 -9.961,1.08 -0.157,0.19 -2.266,3.57 -2.266,3.57 -0.234,0.51 -1.016,1.99 -2.383,1.37 -1.133,-0.59 -0.781,-1.9 0.117,-3.73 l 4.883,-9.18 3.653,-6.94 2.949,-6.15 6.113,-12.91 c 0.781,-1.56 1.348,-2.3 1.973,-2.52 l 0.957,0.1 c 1.211,0.63 0.722,1.95 0.136,3.14 -0.859,1.76 -1.953,4.16 -2.207,5.43 -1.289,4.93 0.45,7.02 4.747,9.42 4.062,2.38 7.578,4.16 27.187,13.96 l 25.254,12.66 c 12.246,6.15 22.793,11.43 28.769,13.53 3.868,1.33 7.266,2.25 9.122,-0.13 l 2.929,-4.59 c 0.528,-0.98 1.035,-1.56 1.563,-1.72 3.183,-0.25 0.957,3.67 0.957,3.67 l -5.567,10.45 -3.339,6.29 -2.969,6.33 -6.367,13.3 c -0.84,1.74 -1.895,2.44 -2.852,1.95 -0.43,-0.21 -0.664,-0.6 -0.664,-1.13 0,-0.41 0.156,-0.88 0.371,-1.37 0,-0.04 2.754,-6.81 2.754,-6.81 0.176,-0.59 0.273,-1.18 0.273,-1.72 0,-2.41 -1.66,-4.57 -5.039,-6.61 -5.429,-3.22 -15.742,-8.39 -27.656,-14.31 0,0 -12.851,-6.45 -13.184,-6.6 h 0.02 c 0,0.19 -0.195,0.52 -0.195,0.52 0,-0.17 1.308,2.37 1.308,2.37 2.442,4.68 20.293,46.81 22.657,55.52 2.226,8.42 3.339,13.56 0.371,21.24 l -4.297,9.21 c -1.446,2.43 -2.969,6.8 -2.969,6.8 z m -55.801,27.29 c -0.097,-0.16 -0.351,-0.24 -0.644,-0.24 l -39.356,4.42 c -0.82,-0.02 -1.308,0.13 -1.386,0.37 -0.059,0.27 0.468,0.54 0.917,0.78 0.118,0.04 32.872,22.4 32.872,22.4 0.117,0.04 0.293,0.16 0.429,0.08 0.215,-0.08 0.313,-0.29 0.352,-0.51 l 6.855,-26.89 c 0.02,-0.1 0.02,-0.14 0.02,-0.22 0,-0.08 -0.02,-0.19 -0.059,-0.19"
         style="fill:#820655;fill-opacity:1;fill-rule:nonzero;stroke:none"
         id="path3872"
         inkscape:connector-curvature="0" /><path
         d="m 835.719,1346.49 -4.571,4.41 c -2.148,2.85 -3.847,7.5 0,20.94 l 18.438,61.11 10.488,34.71 c 0.957,3.46 1.211,5.27 0.02,6.25 -1.328,1.02 -3.281,0.16 -7.285,-2.05 l -88.789,-50.14 c -7.754,-4.35 -12.715,-5.92 -18.321,-2.58 l -3.769,2.72 c -2.598,1.15 -2.832,-0.92 -2.832,-0.92 0.058,-0.64 0.566,-1.21 1.738,-2.17 l 11.562,-8.82 2.579,-1.9 12.168,-10.41 c 0.957,-0.8 1.718,-1.31 2.207,-1.01 2.226,1.11 -0.039,3.22 -0.039,3.22 l -1.758,1.4 c -3.164,2.5 -3.711,4.83 -1.797,7.21 1.055,1.29 3.867,3.65 7.5,5.72 l 19.863,11.72 c 0.742,0.47 1.074,0.49 1.582,0.1 l 26.231,-21.07 c 0.566,-0.43 0.683,-0.9 0.468,-1.61 l -10.605,-32.46 c -0.313,-1.01 -0.899,-1.46 -1.328,-1.68 h -0.039 c -0.215,-0.13 -0.469,-0.23 -0.762,-0.23 -0.293,-0.02 -0.566,0.04 -0.781,0.16 l -0.098,-0.02 c -1.172,0.78 -2.031,1.11 -2.715,0.25 -0.722,-0.9 0.489,-1.97 2.364,-3.55 l 0.449,-0.45 22.011,-18.11 c 3.575,-2.83 4.961,-3.71 5.821,-3.61 2.187,0.64 0,2.87 0,2.87 z m 1.601,104.18 c -0.078,-0.14 -12.812,-37.6 -12.812,-37.6 -0.059,-0.12 -0.117,-0.31 -0.293,-0.37 -0.215,-0.04 -0.41,0.08 -0.527,0.23 l -21.68,17.25 c -0.156,0.14 -0.235,0.23 -0.235,0.35 0,0.2 0.157,0.39 0.391,0.63 l 34.063,20.17 c 0.625,0.49 1.132,0.71 1.347,0.49 0.215,-0.14 -0.039,-0.7 -0.254,-1.15"
         style="fill:#820655;fill-opacity:1;fill-rule:nonzero;stroke:none"
         id="path3874"
         inkscape:connector-curvature="0" /><path
         d="m 975.953,1397.27 c 0.664,0.74 1.875,-0.16 3.672,-1.07 l 11.406,-6.16 4.59,-2.52 2.52,-1.13 10.859,-5.16 c 1.64,-0.87 3.2,-1.75 2.54,-3.12 -0.47,-0.9 -1.56,-0.92 -3.28,-0.04 l -4.18,1.72 c -4.103,0.8 -6.564,-1.33 -10.627,-8.83 l -44.902,-83.89 c 0,0 -2.149,-3.98 -4.102,-3.3 -1.562,0.8 -2.402,3.07 -3.105,5.34 l -10.664,32.67 -8.711,27.07 c -5.723,17.54 -10.86,36.47 -13.321,45.57 0,0 -1.289,4.59 -1.367,4.8 v 0 l -27.402,-57.11 c -4.512,-9.37 -5.391,-14.47 -2.949,-17.09 1.894,-2.03 4.414,-3.47 6.425,-4.49 1.114,-0.57 1.7,-1.09 1.895,-1.62 0,0 0.156,-1.19 -0.898,-1.52 -0.645,-0.22 -1.602,0.02 -3.223,0.84 l -12.871,6.95 -3.516,2.03 -2.246,1.06 -12.441,5.95 c -1.407,0.73 -2.266,1.25 -2.5,1.99 0,0 -0.391,1.16 0.781,1.67 0.547,0.19 1.25,0 2.305,-0.51 1.328,-0.74 3.984,-1.98 6.308,-2.42 3.887,-0.69 6.406,2.81 12.52,14.37 l 41.914,78.77 c 1.172,2.3 2.207,3.55 3.164,3.87 0,0 1.953,1.09 3.535,-4.92 l 0.566,-1.98 c 0.079,-0.29 9.454,-33.51 19.473,-64.35 l 9.336,-30.82 c 0,0 3.242,-10.9 4.18,-13.97 l 0.273,-0.86 0.235,-0.93 0.214,0.6 c 0.645,1.35 29.512,60.82 29.512,60.82 2.305,4.77 3.379,7.87 3.262,10.18 -0.039,1.6 -0.606,2.85 -1.602,4.08 -1.601,1.82 -4.707,3.42 -6.679,4.39 0,0 -2.579,1.41 -0.899,3.07"
         style="fill:#820655;fill-opacity:1;fill-rule:nonzero;stroke:none"
         id="path3876"
         inkscape:connector-curvature="0" /><path
         d="m 1137.13,1341.66 -4.38,0.73 c -4.16,-0.02 -6.17,-2.5 -8.59,-10.69 l -26.88,-91.29 c -0.49,-1.75 -0.96,-2.89 -1.54,-3.53 -0.31,-0.37 -0.76,-0.67 -1.27,-0.67 -0.16,0 -0.29,0.04 -0.41,0.1 l -0.1,-0.04 c -0.06,0.04 -0.08,0.1 -0.12,0.1 -0.04,0.02 -0.09,0.06 -0.17,0.08 -1.53,0.6 -2.83,2.6 -3.87,4.51 l -17.44,30.35 -13.67,24.16 c -9.08,15.88 -17.95,33.32 -22.19,41.66 0,0 -2.3,4.44 -2.46,4.65 v 0.02 l -15.2,-61.46 c -2.54,-10.2 -2.36,-15.36 0.55,-17.35 2.31,-1.62 5.08,-2.46 7.23,-3.08 0,0 3.32,-0.86 1.68,-2.89 -0.51,-0.59 -1.66,-0.3 -3.34,0.17 l -13.97,4.18 -3.94,1.21 -2.37,0.57 -13.453,3.26 c -4.082,0.94 -2.93,2.6 -2.93,2.6 0.547,1.23 1.699,0.97 2.891,0.6 1.425,-0.37 4.296,-1.05 6.679,-1.03 3.903,0.12 5.663,4.14 9.293,16.66 l 25.02,85.68 c 0.63,2.21 1.62,5.02 3.5,4.53 1.33,-0.35 2.09,-1.89 3.24,-4.18 l 0.98,-1.87 c 2.21,-4.3 17.56,-33.5 32.23,-59.04 l 15.23,-27.99 c 0,0 6.58,-12.13 7.38,-13.75 v 0 l 0.06,-0.14 0.04,-0.04 v 0 l 0.35,-0.66 0.12,0.41 0.04,-0.02 c 0.21,0.8 16.54,65.66 16.54,65.66 0.9,3.63 1.41,6.29 1.41,8.32 0,2.81 -0.9,4.49 -2.7,5.9 -1.89,1.47 -5.31,2.4 -7.4,2.95 -1.47,0.43 -2.13,0.92 -2.13,1.76 -0.04,0.76 0.59,1.19 0.59,1.19 0.7,0.43 1.99,0.18 3.79,-0.31 l 12.38,-3.79 5.08,-1.53 2.77,-0.64 11.62,-2.87 c 1.56,-0.43 3.01,-0.92 3.01,-1.52 0,0 0.51,-2.39 -3.18,-1.63"
         style="fill:#820655;fill-opacity:1;fill-rule:nonzero;stroke:none"
         id="path3878"
         inkscape:connector-curvature="0" /><path
         d="m 1419.66,2467.84 c -0.58,-1.38 -2.38,-0.88 -4.06,-0.25 l -13.4,5.67 -3.79,1.66 -2.5,0.87 -12.83,4.69 c -1.76,0.72 -3.18,1.4 -2.62,2.84 0.47,1.14 1.88,0.73 2.9,0.32 1.77,-0.68 4.31,-1.55 6.54,-1.76 3.92,-0.3 6.11,3.4 11.01,15.55 l 34.14,82.48 c 0.84,2.14 2.13,4.87 3.95,4.17 1.29,-0.5 1.88,-2.11 2.77,-4.56 l 0.77,-1.96 c 0.13,-0.3 12.73,-32.61 25.64,-62.17 l 12.38,-30 c 0,0 5.74,-13.97 5.74,-14.1 0,0 0.06,0 0.08,-0.02 l 0.26,-0.58 0.13,0.33 c 0,0 0.26,0.66 0.26,0.64 0.33,0.78 23.26,62.78 23.26,62.78 1.58,4.16 2.38,7.1 2.38,9.36 0,2.1 -0.72,3.59 -2.11,4.93 -1.76,1.62 -5,2.95 -7.07,3.73 -1.33,0.51 -1.95,1.09 -1.95,1.81 0,0.21 0.04,0.4 0.12,0.62 0.54,1.32 2.38,0.7 4.37,-0.1 l 11.88,-5.06 4.96,-2.09 2.52,-0.88 11.34,-4.11 c 1.53,-0.62 2.54,-1.15 2.82,-1.86 l -0.61,-1.61 c -0.6,-0.25 -1.46,-0.14 -2.71,0.36 l -4.26,1.17 c -4.14,0.42 -6.43,-1.86 -9.71,-9.73 l -36.54,-87.85 c -0.82,-2.18 -1.64,-3.34 -2.5,-3.71 h -1.25 c -1.64,0.62 -2.7,2.85 -3.67,5.03 l -13.91,31.84 -11.13,25.8 c -7.4,16.84 -14.3,35.11 -17.64,43.95 0,0 -1.74,4.52 -1.82,4.7 v 0.02 l -21.79,-59.49 c -3.56,-9.8 -3.95,-14.97 -1.29,-17.33 2.07,-1.79 4.73,-2.99 6.85,-3.83 0,0 2.6,-0.87 2.09,-2.27"
         style="fill:#820655;fill-opacity:1;fill-rule:nonzero;stroke:none"
         id="path3880"
         inkscape:connector-curvature="0" /></g></g></svg>