<?xml version="1.0" encoding="UTF-8" standalone="no"?>
<svg
   xmlns:dc="http://purl.org/dc/elements/1.1/"
   xmlns:cc="http://creativecommons.org/ns#"
   xmlns:rdf="http://www.w3.org/1999/02/22-rdf-syntax-ns#"
   xmlns:svg="http://www.w3.org/2000/svg"
   xmlns="http://www.w3.org/2000/svg"
   xmlns:sodipodi="http://sodipodi.sourceforge.net/DTD/sodipodi-0.dtd"
   xmlns:inkscape="http://www.inkscape.org/namespaces/inkscape"
   inkscape:version="1.0 (4035a4fb49, 2020-05-01)"
   sodipodi:docname="PDF-icon.svg"
   xml:space="preserve"
   style="enable-background:new 0 0 512 512;"
   viewBox="0 0 512 512"
   y="0px"
   x="0px"
   id="Layer_1"
   version="1.1"><metadata
   id="metadata953"><rdf:RDF><cc:Work
       rdf:about=""><dc:format>image/svg+xml</dc:format><dc:type
         rdf:resource="http://purl.org/dc/dcmitype/StillImage" /><dc:title></dc:title></cc:Work></rdf:RDF></metadata><defs
   id="defs951" /><sodipodi:namedview
   inkscape:current-layer="Layer_1"
   inkscape:window-maximized="0"
   inkscape:window-y="0"
   inkscape:window-x="64"
   inkscape:cy="253.29978"
   inkscape:cx="193.58213"
   inkscape:zoom="1.1310946"
   showgrid="false"
   id="namedview949"
   inkscape:window-height="1030"
   inkscape:window-width="1424"
   inkscape:pageshadow="2"
   inkscape:pageopacity="0"
   guidetolerance="10"
   gridtolerance="10"
   objecttolerance="10"
   borderopacity="1"
   bordercolor="#666666"
   pagecolor="#ffffff" />
<g
   id="g898">
	<g
   id="g896">
		<path
   id="path894"
   d="M494.479,138.557L364.04,3.018C362.183,1.09,359.621,0,356.945,0h-194.41c-21.757,0-39.458,17.694-39.458,39.442v137.789    H44.29c-16.278,0-29.521,13.239-29.521,29.513v147.744C14.769,370.761,28.012,384,44.29,384h78.787v88.627    c0,21.71,17.701,39.373,39.458,39.373h295.238c21.757,0,39.458-17.653,39.458-39.351V145.385    C497.231,142.839,496.244,140.392,494.479,138.557z M359.385,26.581l107.079,111.265H359.385V26.581z M44.29,364.308    c-5.42,0-9.828-4.405-9.828-9.82V206.744c0-5.415,4.409-9.821,9.828-9.821h265.882c5.42,0,9.828,4.406,9.828,9.821v147.744    c0,5.415-4.409,9.82-9.828,9.82H44.29z M477.538,472.649c0,10.84-8.867,19.659-19.766,19.659H162.535    c-10.899,0-19.766-8.828-19.766-19.68V384h167.403c16.278,0,29.521-13.239,29.521-29.512V206.744    c0-16.274-13.243-29.513-29.521-29.513H142.769V39.442c0-10.891,8.867-19.75,19.766-19.75h177.157v128    c0,5.438,4.409,9.846,9.846,9.846h128V472.649z" />
	</g>
</g>
<g
   id="g904">
	<g
   id="g902">
		<path
   id="path900"
   d="M132.481,249.894c-3.269-4.25-7.327-7.01-12.173-8.279c-3.154-0.846-9.923-1.269-20.308-1.269H72.596v84.577h17.077    v-31.904h11.135c7.731,0,13.635-0.404,17.712-1.212c3-0.654,5.952-1.99,8.856-4.01c2.904-2.019,5.298-4.798,7.183-8.336    c1.885-3.538,2.827-7.904,2.827-13.096C137.385,259.634,135.75,254.144,132.481,249.894z M117.856,273.173    c-1.288,1.885-3.067,3.269-5.337,4.154s-6.769,1.327-13.5,1.327h-9.346v-24h8.25c6.154,0,10.25,0.192,12.288,0.577    c2.769,0.5,5.058,1.75,6.865,3.75c1.808,2,2.712,4.539,2.712,7.615C119.789,269.096,119.144,271.288,117.856,273.173z" />
	</g>
</g>
<g
   id="g910">
	<g
   id="g908">
		<path
   id="path906"
   d="M219.481,263.452c-1.846-5.404-4.539-9.971-8.077-13.702s-7.789-6.327-12.75-7.789c-3.692-1.077-9.058-1.615-16.096-1.615    h-31.212v84.577h32.135c6.308,0,11.346-0.596,15.115-1.789c5.039-1.615,9.039-3.865,12-6.75c3.923-3.808,6.942-8.788,9.058-14.942    c1.731-5.039,2.596-11.039,2.596-18C222.25,275.519,221.327,268.856,219.481,263.452z M202.865,298.183    c-1.154,3.789-2.644,6.51-4.471,8.163c-1.827,1.654-4.125,2.827-6.894,3.519c-2.115,0.539-5.558,0.808-10.327,0.808h-12.75v0    v-56.019h7.673c6.961,0,11.635,0.269,14.019,0.808c3.192,0.692,5.827,2.019,7.904,3.981c2.077,1.962,3.692,4.692,4.846,8.192    c1.154,3.5,1.731,8.519,1.731,15.058C204.596,289.231,204.019,294.394,202.865,298.183z" />
	</g>
</g>
<g
   id="g916">
	<g
   id="g914">
		<polygon
   id="polygon912"
   points="294.827,254.654 294.827,240.346 236.846,240.346 236.846,324.923 253.923,324.923 253.923,288.981     289.231,288.981 289.231,274.673 253.923,274.673 253.923,254.654   " />
	</g>
</g>
<g
   id="g918">
</g>
<g
   id="g920">
</g>
<g
   id="g922">
</g>
<g
   id="g924">
</g>
<g
   id="g926">
</g>
<g
   id="g928">
</g>
<g
   id="g930">
</g>
<g
   id="g932">
</g>
<g
   id="g934">
</g>
<g
   id="g936">
</g>
<g
   id="g938">
</g>
<g
   id="g940">
</g>
<g
   id="g942">
</g>
<g
   id="g944">
</g>
<g
   id="g946">
</g>
<path
   id="path979"
   d="m 153.99534,510.47754 c -11.62416,-2.84192 -20.45505,-10.02403 -25.88739,-21.0541 l -4.11993,-8.36527 -0.36702,-49.10426 -0.36701,-49.10427 -43.393669,-0.0117 -43.393671,-0.0117 -6.548004,-3.75528 c -4.821944,-2.76539 -7.537902,-5.48134 -10.303286,-10.30328 l -3.75528,-6.54801 0.01573,-81.26984 c 0.01476,-76.2614 0.157674,-81.58236 2.319043,-86.34085 2.835797,-6.24331 10.998517,-13.41948 17.469659,-15.35828 3.252388,-0.97444 18.437911,-1.45106 46.232515,-1.45106 h 41.389333 l 0.35083,-73.45543 0.35083,-73.455433 3.23849,-6.876679 c 4.69164,-9.962311 8.9748,-14.3964764 18.37886,-19.0268129 L 153.94013,0.88139066 255.24246,0.52269371 C 310.95874,0.3254103 357.71014,0.45154509 359.13446,0.80299189 362.15751,1.5489209 494.86025,139.18034 496.29686,143.05971 c 0.53251,1.43796 0.81383,78.06245 0.62516,170.27668 l -0.34304,167.66222 -3.27557,6.9848 c -4.16358,8.87842 -10.86853,15.58337 -19.74695,19.74695 l -6.9848,3.27557 -154.4127,0.19432 c -84.92699,0.10691 -156.10061,-0.21834 -158.16362,-0.72271 z m 312.69567,-19.98146 c 3.15586,-1.43324 6.27412,-4.18116 8.12698,-7.1618 l 3.00641,-4.83628 0.33106,-160.9768 0.33106,-160.97681 h -66.14614 c -63.25684,0 -66.27508,-0.1044 -69.09786,-2.3894 l -2.95169,-2.38942 -0.35469,-66.377379 -0.35469,-66.377374 h -90.34009 -90.34009 l -5.57873,2.813187 c -4.07543,2.055119 -6.33679,4.316482 -8.39191,8.391911 l -2.81319,5.578724 v 71.002471 71.00247 h 85.81343 c 61.5079,0 87.1852,0.41099 90.65661,1.45106 6.27134,1.87893 14.17942,8.69887 17.68298,15.24983 2.76025,5.1611 2.77136,5.44878 3.13709,81.18374 0.23778,49.23978 -0.0944,78.5002 -0.94323,83.09209 -1.61052,8.71212 -5.92254,15.45832 -12.78302,19.99917 l -5.21089,3.44902 -88.86391,0.62515 -88.8639,0.62516 v 48.23521 48.23523 l 3.35035,4.39139 c 6.96321,9.12688 -5.45394,8.48282 163.5654,8.48395 145.43172,9.6e-4 152.13053,-0.0982 157.03266,-2.3245 z m -149.25279,-128.62319 2.84772,-2.84734 0.35506,-75.9219 c 0.19529,-41.75704 0.0478,-77.17226 -0.32771,-78.70047 -0.37552,-1.52822 -1.90733,-3.91943 -3.40401,-5.3138 -2.69931,-2.51479 -3.82576,-2.53522 -139.80111,-2.53522 H 40.028305 l -3.031133,3.22585 -3.031132,3.22586 -0.377687,74.60564 c -0.258945,51.15003 0.05012,76.07465 0.983072,79.27812 2.605921,8.94802 -7.064186,8.40424 144.082915,8.10222 l 135.93617,-0.27163 z M 466.33414,138.10239 C 466.88426,137.13854 361.83026,27.469741 359.63965,26.721033 c -1.38184,-0.472288 -1.76457,110.106847 -0.38586,111.485547 1.15669,1.15669 106.41916,1.05427 107.08035,-0.10415 z"
   style="opacity:1;fill:#335a6e;fill-opacity:1;stroke:#010101;stroke-width:4.72556;stroke-linecap:round;stroke-linejoin:miter;stroke-miterlimit:4;stroke-dasharray:none;stroke-opacity:1;paint-order:normal" /><path
   id="path981"
   d="m 152.02946,282.55422 v -42.07388 l 17.01891,0.0273 c 27.43529,0.044 34.32555,1.6824 41.9749,9.98096 4.9327,5.35134 8.05723,11.79867 9.58329,19.77468 4.55051,23.78336 -3.6124,45.31655 -19.56185,51.60281 -4.89923,1.93096 -6.7234,2.09339 -27.13379,2.41608 l -21.88146,0.34594 z m 42.86715,26.41427 c 6.41666,-3.16517 9.03949,-9.03004 9.89522,-22.12656 0.96819,-14.81782 -2.32046,-25.42263 -9.21266,-29.70779 -2.98012,-1.85286 -4.57818,-2.09773 -15.47956,-2.37197 l -12.15636,-0.3058 v 28.47836 28.47836 l 11.71431,-0.35297 c 9.36181,-0.28208 12.42216,-0.70213 15.23905,-2.09163 z"
   style="opacity:1;fill:#335a6e;fill-opacity:1;stroke:#010101;stroke-width:3.34148;stroke-linecap:round;stroke-linejoin:miter;stroke-miterlimit:4;stroke-dasharray:none;stroke-opacity:1;paint-order:normal" /><path
   id="path983"
   d="m 236.90299,282.47506 v -41.99472 h 28.73323 28.73323 v 7.07279 7.0728 h -20.33429 -20.33428 v 10.16714 10.16714 h 17.68199 17.68198 v 6.63075 6.63074 h -17.68198 -17.68199 v 18.12404 18.12403 h -8.39894 -8.39895 z"
   style="opacity:1;fill:#335a6e;fill-opacity:1;stroke:#010101;stroke-width:3.34148;stroke-linecap:round;stroke-linejoin:miter;stroke-miterlimit:4;stroke-dasharray:none;stroke-opacity:1;paint-order:normal" /><path
   id="path985"
   d="m 73.344618,282.35462 v -42.11516 l 22.323508,0.4928 c 14.811794,0.32697 23.513484,0.88402 25.859904,1.65544 1.9615,0.64487 5.56955,3.13668 8.10181,5.59531 3.63222,3.52662 4.87524,5.5075 6.08123,9.6911 3.06287,10.62511 -0.0789,22.75315 -7.47306,28.84805 -5.22636,4.30801 -9.7754,5.377 -25.05504,5.88774 l -13.924564,0.46545 v 15.79721 15.79721 h -7.956894 -7.956894 z m 40.071422,-5.06238 c 8.50907,-3.55531 8.89023,-16.68447 0.61094,-21.04416 -2.5027,-1.31786 -5.1147,-1.62215 -13.92456,-1.62215 H 89.258406 v 12.51236 12.51236 l 10.522858,-0.52908 c 6.061666,-0.30478 11.842166,-1.08033 13.634776,-1.82933 z"
   style="opacity:1;fill:#335a6e;fill-opacity:1;stroke:#010101;stroke-width:3.34148;stroke-linecap:round;stroke-linejoin:miter;stroke-miterlimit:4;stroke-dasharray:none;stroke-opacity:1;paint-order:normal" /></svg>
